%TF.GenerationSoftware,KiCad,Pcbnew,(6.0.10)*%
%TF.CreationDate,2023-01-26T20:54:32+03:00*%
%TF.ProjectId,lpt2midi_short,6c707432-6d69-4646-995f-73686f72742e,rev?*%
%TF.SameCoordinates,Original*%
%TF.FileFunction,Copper,L1,Top*%
%TF.FilePolarity,Positive*%
%FSLAX46Y46*%
G04 Gerber Fmt 4.6, Leading zero omitted, Abs format (unit mm)*
G04 Created by KiCad (PCBNEW (6.0.10)) date 2023-01-26 20:54:32*
%MOMM*%
%LPD*%
G01*
G04 APERTURE LIST*
%TA.AperFunction,ComponentPad*%
%ADD10C,1.600000*%
%TD*%
%TA.AperFunction,ComponentPad*%
%ADD11R,1.600000X1.600000*%
%TD*%
%TA.AperFunction,ComponentPad*%
%ADD12C,4.000000*%
%TD*%
%TA.AperFunction,ComponentPad*%
%ADD13O,1.600000X1.600000*%
%TD*%
%TA.AperFunction,ComponentPad*%
%ADD14C,2.500000*%
%TD*%
%TA.AperFunction,Conductor*%
%ADD15C,0.250000*%
%TD*%
G04 APERTURE END LIST*
D10*
%TO.P,J2,25,P25*%
%TO.N,GND*%
X108214000Y-99232331D03*
%TO.P,J2,24,P24*%
X110984000Y-99232331D03*
%TO.P,J2,23,P23*%
X113754000Y-99232331D03*
%TO.P,J2,22,P22*%
X116524000Y-99232331D03*
%TO.P,J2,21,P21*%
X119294000Y-99232331D03*
%TO.P,J2,20,P20*%
X122064000Y-99232331D03*
%TO.P,J2,19,P19*%
X124834000Y-99232331D03*
%TO.P,J2,18,P18*%
X127604000Y-99232331D03*
%TO.P,J2,17,P17*%
%TO.N,/SELECTPRN*%
X130374000Y-99232331D03*
%TO.P,J2,16,P16*%
%TO.N,Net-(J2-Pad16)*%
X133144000Y-99232331D03*
%TO.P,J2,15,P15*%
%TO.N,unconnected-(J2-Pad15)*%
X135914000Y-99232331D03*
%TO.P,J2,14,P14*%
%TO.N,Net-(J2-Pad14)*%
X138684000Y-99232331D03*
%TO.P,J2,13,13*%
%TO.N,unconnected-(J2-Pad13)*%
X106829000Y-102072331D03*
%TO.P,J2,12,12*%
%TO.N,unconnected-(J2-Pad12)*%
X109599000Y-102072331D03*
%TO.P,J2,11,11*%
%TO.N,unconnected-(J2-Pad11)*%
X112369000Y-102072331D03*
%TO.P,J2,10,10*%
%TO.N,unconnected-(J2-Pad10)*%
X115139000Y-102072331D03*
%TO.P,J2,9,9*%
%TO.N,Net-(J2-Pad9)*%
X117909000Y-102072331D03*
%TO.P,J2,8,8*%
%TO.N,Net-(J2-Pad8)*%
X120679000Y-102072331D03*
%TO.P,J2,7,7*%
%TO.N,Net-(J2-Pad7)*%
X123449000Y-102072331D03*
%TO.P,J2,6,6*%
%TO.N,Net-(J2-Pad6)*%
X126219000Y-102072331D03*
%TO.P,J2,5,5*%
%TO.N,Net-(J2-Pad5)*%
X128989000Y-102072331D03*
%TO.P,J2,4,4*%
%TO.N,Net-(J2-Pad4)*%
X131759000Y-102072331D03*
%TO.P,J2,3,3*%
%TO.N,Net-(J2-Pad3)*%
X134529000Y-102072331D03*
%TO.P,J2,2,2*%
%TO.N,Net-(J2-Pad2)*%
X137299000Y-102072331D03*
D11*
%TO.P,J2,1,1*%
%TO.N,/STROBE*%
X140069000Y-102072331D03*
D12*
%TO.P,J2,0,PAD*%
%TO.N,GND*%
X146999000Y-100652331D03*
X99899000Y-100652331D03*
%TD*%
D10*
%TO.P,220,1*%
%TO.N,Net-(J1-Pad4)*%
X136144000Y-128524000D03*
D13*
%TO.P,220,2*%
%TO.N,Net-(R1-Pad2)*%
X143764000Y-128524000D03*
%TD*%
%TO.P,U1,30,VIN*%
%TO.N,unconnected-(U1-Pad30)*%
X146455000Y-122682000D03*
%TO.P,U1,29,GND*%
%TO.N,GND*%
X143915000Y-122682000D03*
%TO.P,U1,28,~{RESET}*%
%TO.N,unconnected-(U1-Pad28)*%
X141375000Y-122682000D03*
%TO.P,U1,27,+5V*%
%TO.N,Net-(R1-Pad2)*%
X138835000Y-122682000D03*
%TO.P,U1,26,A7/D21*%
%TO.N,unconnected-(U1-Pad26)*%
X136295000Y-122682000D03*
%TO.P,U1,25,A6/D20*%
%TO.N,unconnected-(U1-Pad25)*%
X133755000Y-122682000D03*
%TO.P,U1,24,A5/D19*%
%TO.N,unconnected-(U1-Pad24)*%
X131215000Y-122682000D03*
%TO.P,U1,23,A4/D18*%
%TO.N,unconnected-(U1-Pad23)*%
X128675000Y-122682000D03*
%TO.P,U1,22,A3/D17*%
%TO.N,unconnected-(U1-Pad22)*%
X126135000Y-122682000D03*
%TO.P,U1,21,A2/D16*%
%TO.N,unconnected-(U1-Pad21)*%
X123595000Y-122682000D03*
%TO.P,U1,20,A1/D15*%
%TO.N,unconnected-(U1-Pad20)*%
X121055000Y-122682000D03*
%TO.P,U1,19,A0/D14*%
%TO.N,unconnected-(U1-Pad19)*%
X118515000Y-122682000D03*
%TO.P,U1,18,AREF*%
%TO.N,unconnected-(U1-Pad18)*%
X115975000Y-122682000D03*
%TO.P,U1,17,3V3*%
%TO.N,unconnected-(U1-Pad17)*%
X113435000Y-122682000D03*
%TO.P,U1,16,D13*%
%TO.N,/SELECTPRN*%
X110895000Y-122682000D03*
%TO.P,U1,15,D12*%
%TO.N,Net-(J2-Pad16)*%
X110895000Y-107442000D03*
%TO.P,U1,14,~D11*%
%TO.N,Net-(J2-Pad14)*%
X113435000Y-107442000D03*
%TO.P,U1,13,~D10*%
%TO.N,Net-(J2-Pad9)*%
X115975000Y-107442000D03*
%TO.P,U1,12,~D9*%
%TO.N,Net-(J2-Pad8)*%
X118515000Y-107442000D03*
%TO.P,U1,11,D8*%
%TO.N,Net-(J2-Pad7)*%
X121055000Y-107442000D03*
%TO.P,U1,10,D7*%
%TO.N,Net-(J2-Pad6)*%
X123595000Y-107442000D03*
%TO.P,U1,9,~D6*%
%TO.N,Net-(J2-Pad5)*%
X126135000Y-107442000D03*
%TO.P,U1,8,~D5*%
%TO.N,Net-(J2-Pad4)*%
X128675000Y-107442000D03*
%TO.P,U1,7,D4*%
%TO.N,Net-(J2-Pad3)*%
X131215000Y-107442000D03*
%TO.P,U1,6,~D3*%
%TO.N,Net-(J2-Pad2)*%
X133755000Y-107442000D03*
%TO.P,U1,5,D2*%
%TO.N,/STROBE*%
X136295000Y-107442000D03*
%TO.P,U1,4,GND*%
%TO.N,GND*%
X138835000Y-107442000D03*
%TO.P,U1,3,~{RESET}*%
%TO.N,unconnected-(U1-Pad3)*%
X141375000Y-107442000D03*
%TO.P,U1,2,D0/RX*%
%TO.N,unconnected-(U1-Pad2)*%
X143915000Y-107442000D03*
D11*
%TO.P,U1,1,D1/TX*%
%TO.N,Net-(J1-Pad5)*%
X146455000Y-107442000D03*
%TD*%
D14*
%TO.P,J1,3*%
%TO.N,unconnected-(J1-Pad3)*%
X115944000Y-133652000D03*
%TO.P,J1,4*%
%TO.N,Net-(J1-Pad4)*%
X128444000Y-131152000D03*
%TO.P,J1,2*%
%TO.N,GND*%
X123444000Y-133652000D03*
%TO.P,J1,1*%
%TO.N,unconnected-(J1-Pad1)*%
X130944000Y-133652000D03*
%TO.P,J1,5*%
%TO.N,Net-(J1-Pad5)*%
X118444000Y-131152000D03*
%TO.P,J1,6*%
%TO.N,N/C*%
X128444000Y-143652000D03*
X118444000Y-143652000D03*
%TD*%
D15*
%TO.N,Net-(J2-Pad16)*%
X113494000Y-104843000D02*
X113494000Y-102126340D01*
X110895000Y-107442000D02*
X113494000Y-104843000D01*
X113494000Y-102126340D02*
X115036340Y-100584000D01*
X115036340Y-100584000D02*
X131792331Y-100584000D01*
X131792331Y-100584000D02*
X133144000Y-99232331D01*
%TO.N,Net-(J2-Pad8)*%
X120679000Y-102072331D02*
X120679000Y-105278000D01*
X120679000Y-105278000D02*
X118515000Y-107442000D01*
%TO.N,Net-(J1-Pad5)*%
X118444000Y-133938000D02*
X118444000Y-131152000D01*
X122682000Y-138176000D02*
X118444000Y-133938000D01*
X146050000Y-138176000D02*
X122682000Y-138176000D01*
X149098000Y-121158000D02*
X149098000Y-135128000D01*
X146455000Y-107442000D02*
X146455000Y-118515000D01*
X146455000Y-118515000D02*
X149098000Y-121158000D01*
X149098000Y-135128000D02*
X146050000Y-138176000D01*
%TO.N,Net-(R1-Pad2)*%
X138835000Y-125881000D02*
X138835000Y-122682000D01*
X141478000Y-128524000D02*
X138835000Y-125881000D01*
X143764000Y-128524000D02*
X141478000Y-128524000D01*
%TO.N,GND*%
X147574000Y-126341000D02*
X143915000Y-122682000D01*
X142748000Y-135890000D02*
X147574000Y-131064000D01*
X125682000Y-135890000D02*
X142748000Y-135890000D01*
X147574000Y-131064000D02*
X147574000Y-126341000D01*
X123444000Y-133652000D02*
X125682000Y-135890000D01*
%TO.N,Net-(J1-Pad4)*%
X133516000Y-131152000D02*
X136144000Y-128524000D01*
X128444000Y-131152000D02*
X133516000Y-131152000D01*
%TO.N,Net-(J2-Pad9)*%
X117909000Y-105508000D02*
X115975000Y-107442000D01*
X117909000Y-102072331D02*
X117909000Y-105508000D01*
%TO.N,Net-(J2-Pad7)*%
X123449000Y-105048000D02*
X121055000Y-107442000D01*
X123449000Y-102072331D02*
X123449000Y-105048000D01*
%TO.N,Net-(J2-Pad6)*%
X126219000Y-102072331D02*
X126219000Y-104818000D01*
X126219000Y-104818000D02*
X123595000Y-107442000D01*
%TO.N,Net-(J2-Pad5)*%
X128989000Y-104588000D02*
X126135000Y-107442000D01*
X128989000Y-102072331D02*
X128989000Y-104588000D01*
%TO.N,Net-(J2-Pad4)*%
X131759000Y-104358000D02*
X128675000Y-107442000D01*
X131759000Y-102072331D02*
X131759000Y-104358000D01*
%TO.N,Net-(J2-Pad3)*%
X134529000Y-104128000D02*
X131215000Y-107442000D01*
X134529000Y-102072331D02*
X134529000Y-104128000D01*
%TO.N,Net-(J2-Pad2)*%
X137299000Y-103898000D02*
X133755000Y-107442000D01*
X137299000Y-102072331D02*
X137299000Y-103898000D01*
%TO.N,/STROBE*%
X140069000Y-103668000D02*
X136295000Y-107442000D01*
X140069000Y-102072331D02*
X140069000Y-103668000D01*
%TO.N,GND*%
X143915000Y-112522000D02*
X138835000Y-107442000D01*
X143915000Y-122682000D02*
X143915000Y-112522000D01*
X145624669Y-100652331D02*
X138835000Y-107442000D01*
X146999000Y-100652331D02*
X145624669Y-100652331D01*
X142866669Y-96520000D02*
X146999000Y-100652331D01*
X104031331Y-96520000D02*
X142866669Y-96520000D01*
X99899000Y-100652331D02*
X104031331Y-96520000D01*
X124834000Y-99232331D02*
X127604000Y-99232331D01*
X122064000Y-99232331D02*
X124834000Y-99232331D01*
X119294000Y-99232331D02*
X122064000Y-99232331D01*
X116524000Y-99232331D02*
X119294000Y-99232331D01*
X113754000Y-99232331D02*
X116524000Y-99232331D01*
X110984000Y-99232331D02*
X113754000Y-99232331D01*
X108214000Y-99232331D02*
X110984000Y-99232331D01*
X106794000Y-100652331D02*
X108214000Y-99232331D01*
X99899000Y-100652331D02*
X106794000Y-100652331D01*
%TD*%
%TA.AperFunction,Conductor*%
%TO.N,GND*%
G36*
X150309621Y-91968502D02*
G01*
X150356114Y-92022158D01*
X150367500Y-92074500D01*
X150367500Y-145923500D01*
X150347498Y-145991621D01*
X150293842Y-146038114D01*
X150241500Y-146049500D01*
X96646500Y-146049500D01*
X96578379Y-146029498D01*
X96531886Y-145975842D01*
X96520500Y-145923500D01*
X96520500Y-143605839D01*
X116681173Y-143605839D01*
X116693713Y-143866908D01*
X116744704Y-144123256D01*
X116833026Y-144369252D01*
X116835242Y-144373376D01*
X116899753Y-144493437D01*
X116956737Y-144599491D01*
X116959532Y-144603234D01*
X116959534Y-144603237D01*
X117110330Y-144805177D01*
X117110335Y-144805183D01*
X117113122Y-144808915D01*
X117116431Y-144812195D01*
X117116436Y-144812201D01*
X117295426Y-144989635D01*
X117298743Y-144992923D01*
X117302505Y-144995681D01*
X117302508Y-144995684D01*
X117505750Y-145144707D01*
X117509524Y-145147474D01*
X117513667Y-145149654D01*
X117513669Y-145149655D01*
X117736684Y-145266989D01*
X117736689Y-145266991D01*
X117740834Y-145269172D01*
X117987590Y-145355344D01*
X117992183Y-145356216D01*
X118239785Y-145403224D01*
X118239788Y-145403224D01*
X118244374Y-145404095D01*
X118374959Y-145409226D01*
X118500875Y-145414174D01*
X118500881Y-145414174D01*
X118505543Y-145414357D01*
X118584977Y-145405657D01*
X118760707Y-145386412D01*
X118760712Y-145386411D01*
X118765360Y-145385902D01*
X118878116Y-145356216D01*
X119013594Y-145320548D01*
X119013596Y-145320547D01*
X119018117Y-145319357D01*
X119258262Y-145216182D01*
X119480519Y-145078646D01*
X119484082Y-145075629D01*
X119484087Y-145075626D01*
X119676439Y-144912787D01*
X119676440Y-144912786D01*
X119680005Y-144909768D01*
X119771729Y-144805177D01*
X119849257Y-144716774D01*
X119849261Y-144716769D01*
X119852339Y-144713259D01*
X119993733Y-144493437D01*
X120101083Y-144255129D01*
X120172030Y-144003572D01*
X120188832Y-143871496D01*
X120204616Y-143747421D01*
X120204616Y-143747417D01*
X120205014Y-143744291D01*
X120207431Y-143652000D01*
X120204001Y-143605839D01*
X126681173Y-143605839D01*
X126693713Y-143866908D01*
X126744704Y-144123256D01*
X126833026Y-144369252D01*
X126835242Y-144373376D01*
X126899753Y-144493437D01*
X126956737Y-144599491D01*
X126959532Y-144603234D01*
X126959534Y-144603237D01*
X127110330Y-144805177D01*
X127110335Y-144805183D01*
X127113122Y-144808915D01*
X127116431Y-144812195D01*
X127116436Y-144812201D01*
X127295426Y-144989635D01*
X127298743Y-144992923D01*
X127302505Y-144995681D01*
X127302508Y-144995684D01*
X127505750Y-145144707D01*
X127509524Y-145147474D01*
X127513667Y-145149654D01*
X127513669Y-145149655D01*
X127736684Y-145266989D01*
X127736689Y-145266991D01*
X127740834Y-145269172D01*
X127987590Y-145355344D01*
X127992183Y-145356216D01*
X128239785Y-145403224D01*
X128239788Y-145403224D01*
X128244374Y-145404095D01*
X128374959Y-145409226D01*
X128500875Y-145414174D01*
X128500881Y-145414174D01*
X128505543Y-145414357D01*
X128584977Y-145405657D01*
X128760707Y-145386412D01*
X128760712Y-145386411D01*
X128765360Y-145385902D01*
X128878116Y-145356216D01*
X129013594Y-145320548D01*
X129013596Y-145320547D01*
X129018117Y-145319357D01*
X129258262Y-145216182D01*
X129480519Y-145078646D01*
X129484082Y-145075629D01*
X129484087Y-145075626D01*
X129676439Y-144912787D01*
X129676440Y-144912786D01*
X129680005Y-144909768D01*
X129771729Y-144805177D01*
X129849257Y-144716774D01*
X129849261Y-144716769D01*
X129852339Y-144713259D01*
X129993733Y-144493437D01*
X130101083Y-144255129D01*
X130172030Y-144003572D01*
X130188832Y-143871496D01*
X130204616Y-143747421D01*
X130204616Y-143747417D01*
X130205014Y-143744291D01*
X130207431Y-143652000D01*
X130188061Y-143391348D01*
X130176725Y-143341248D01*
X130131408Y-143140980D01*
X130130377Y-143136423D01*
X130035647Y-142892823D01*
X129905951Y-142665902D01*
X129744138Y-142460643D01*
X129553763Y-142281557D01*
X129339009Y-142132576D01*
X129334816Y-142130508D01*
X129108781Y-142019040D01*
X129108778Y-142019039D01*
X129104593Y-142016975D01*
X129058449Y-142002204D01*
X128860123Y-141938720D01*
X128855665Y-141937293D01*
X128597693Y-141895279D01*
X128483942Y-141893790D01*
X128341022Y-141891919D01*
X128341019Y-141891919D01*
X128336345Y-141891858D01*
X128077362Y-141927104D01*
X127826433Y-142000243D01*
X127822180Y-142002203D01*
X127822179Y-142002204D01*
X127785659Y-142019040D01*
X127589072Y-142109668D01*
X127550067Y-142135241D01*
X127374404Y-142250410D01*
X127374399Y-142250414D01*
X127370491Y-142252976D01*
X127175494Y-142427018D01*
X127008363Y-142627970D01*
X126872771Y-142851419D01*
X126771697Y-143092455D01*
X126707359Y-143345783D01*
X126681173Y-143605839D01*
X120204001Y-143605839D01*
X120188061Y-143391348D01*
X120176725Y-143341248D01*
X120131408Y-143140980D01*
X120130377Y-143136423D01*
X120035647Y-142892823D01*
X119905951Y-142665902D01*
X119744138Y-142460643D01*
X119553763Y-142281557D01*
X119339009Y-142132576D01*
X119334816Y-142130508D01*
X119108781Y-142019040D01*
X119108778Y-142019039D01*
X119104593Y-142016975D01*
X119058449Y-142002204D01*
X118860123Y-141938720D01*
X118855665Y-141937293D01*
X118597693Y-141895279D01*
X118483942Y-141893790D01*
X118341022Y-141891919D01*
X118341019Y-141891919D01*
X118336345Y-141891858D01*
X118077362Y-141927104D01*
X117826433Y-142000243D01*
X117822180Y-142002203D01*
X117822179Y-142002204D01*
X117785659Y-142019040D01*
X117589072Y-142109668D01*
X117550067Y-142135241D01*
X117374404Y-142250410D01*
X117374399Y-142250414D01*
X117370491Y-142252976D01*
X117175494Y-142427018D01*
X117008363Y-142627970D01*
X116872771Y-142851419D01*
X116771697Y-143092455D01*
X116707359Y-143345783D01*
X116681173Y-143605839D01*
X96520500Y-143605839D01*
X96520500Y-133605839D01*
X114181173Y-133605839D01*
X114181397Y-133610505D01*
X114181397Y-133610511D01*
X114186296Y-133712500D01*
X114193713Y-133866908D01*
X114244704Y-134123256D01*
X114333026Y-134369252D01*
X114353350Y-134407077D01*
X114399753Y-134493437D01*
X114456737Y-134599491D01*
X114459532Y-134603234D01*
X114459534Y-134603237D01*
X114610330Y-134805177D01*
X114610335Y-134805183D01*
X114613122Y-134808915D01*
X114616431Y-134812195D01*
X114616436Y-134812201D01*
X114795426Y-134989635D01*
X114798743Y-134992923D01*
X114802505Y-134995681D01*
X114802508Y-134995684D01*
X115005173Y-135144284D01*
X115009524Y-135147474D01*
X115013667Y-135149654D01*
X115013669Y-135149655D01*
X115236684Y-135266989D01*
X115236689Y-135266991D01*
X115240834Y-135269172D01*
X115487590Y-135355344D01*
X115492183Y-135356216D01*
X115739785Y-135403224D01*
X115739788Y-135403224D01*
X115744374Y-135404095D01*
X115874959Y-135409226D01*
X116000875Y-135414174D01*
X116000881Y-135414174D01*
X116005543Y-135414357D01*
X116084977Y-135405657D01*
X116260707Y-135386412D01*
X116260712Y-135386411D01*
X116265360Y-135385902D01*
X116325757Y-135370001D01*
X116513594Y-135320548D01*
X116513596Y-135320547D01*
X116518117Y-135319357D01*
X116567101Y-135298312D01*
X116664161Y-135256611D01*
X116758262Y-135216182D01*
X116868352Y-135148057D01*
X116976547Y-135081104D01*
X116976548Y-135081104D01*
X116980519Y-135078646D01*
X116984082Y-135075629D01*
X116984087Y-135075626D01*
X117176439Y-134912787D01*
X117176440Y-134912786D01*
X117180005Y-134909768D01*
X117218743Y-134865596D01*
X117349257Y-134716774D01*
X117349261Y-134716769D01*
X117352339Y-134713259D01*
X117493733Y-134493437D01*
X117601083Y-134255129D01*
X117617543Y-134196767D01*
X117655284Y-134136633D01*
X117719546Y-134106450D01*
X117789924Y-134115800D01*
X117844074Y-134161716D01*
X117854449Y-134180926D01*
X117855770Y-134183978D01*
X117857982Y-134191593D01*
X117862018Y-134198417D01*
X117862020Y-134198422D01*
X117868293Y-134209028D01*
X117876988Y-134226776D01*
X117884448Y-134245617D01*
X117889110Y-134252033D01*
X117889110Y-134252034D01*
X117910436Y-134281387D01*
X117916952Y-134291307D01*
X117939458Y-134329362D01*
X117953779Y-134343683D01*
X117966619Y-134358716D01*
X117978528Y-134375107D01*
X117984634Y-134380158D01*
X118012605Y-134403298D01*
X118021384Y-134411288D01*
X122178348Y-138568253D01*
X122185888Y-138576539D01*
X122190000Y-138583018D01*
X122195777Y-138588443D01*
X122239651Y-138629643D01*
X122242493Y-138632398D01*
X122262230Y-138652135D01*
X122265427Y-138654615D01*
X122274447Y-138662318D01*
X122306679Y-138692586D01*
X122313625Y-138696405D01*
X122313628Y-138696407D01*
X122324434Y-138702348D01*
X122340953Y-138713199D01*
X122356959Y-138725614D01*
X122364228Y-138728759D01*
X122364232Y-138728762D01*
X122397537Y-138743174D01*
X122408187Y-138748391D01*
X122446940Y-138769695D01*
X122454615Y-138771666D01*
X122454616Y-138771666D01*
X122466562Y-138774733D01*
X122485267Y-138781137D01*
X122503855Y-138789181D01*
X122511678Y-138790420D01*
X122511688Y-138790423D01*
X122547524Y-138796099D01*
X122559144Y-138798505D01*
X122590959Y-138806673D01*
X122601970Y-138809500D01*
X122622224Y-138809500D01*
X122641934Y-138811051D01*
X122661943Y-138814220D01*
X122669835Y-138813474D01*
X122688580Y-138811702D01*
X122705962Y-138810059D01*
X122717819Y-138809500D01*
X145971233Y-138809500D01*
X145982416Y-138810027D01*
X145989909Y-138811702D01*
X145997835Y-138811453D01*
X145997836Y-138811453D01*
X146057986Y-138809562D01*
X146061945Y-138809500D01*
X146089856Y-138809500D01*
X146093791Y-138809003D01*
X146093856Y-138808995D01*
X146105693Y-138808062D01*
X146137951Y-138807048D01*
X146141970Y-138806922D01*
X146149889Y-138806673D01*
X146169343Y-138801021D01*
X146188700Y-138797013D01*
X146200930Y-138795468D01*
X146200931Y-138795468D01*
X146208797Y-138794474D01*
X146216168Y-138791555D01*
X146216170Y-138791555D01*
X146249912Y-138778196D01*
X146261142Y-138774351D01*
X146295983Y-138764229D01*
X146295984Y-138764229D01*
X146303593Y-138762018D01*
X146310412Y-138757985D01*
X146310417Y-138757983D01*
X146321028Y-138751707D01*
X146338776Y-138743012D01*
X146357617Y-138735552D01*
X146393387Y-138709564D01*
X146403307Y-138703048D01*
X146434535Y-138684580D01*
X146434538Y-138684578D01*
X146441362Y-138680542D01*
X146455683Y-138666221D01*
X146470717Y-138653380D01*
X146480694Y-138646131D01*
X146487107Y-138641472D01*
X146515298Y-138607395D01*
X146523288Y-138598616D01*
X149490253Y-135631652D01*
X149498539Y-135624112D01*
X149505018Y-135620000D01*
X149551644Y-135570348D01*
X149554398Y-135567507D01*
X149574135Y-135547770D01*
X149576615Y-135544573D01*
X149584320Y-135535551D01*
X149609159Y-135509100D01*
X149614586Y-135503321D01*
X149618405Y-135496375D01*
X149618407Y-135496372D01*
X149624348Y-135485566D01*
X149635199Y-135469047D01*
X149642758Y-135459301D01*
X149647614Y-135453041D01*
X149650759Y-135445772D01*
X149650762Y-135445768D01*
X149665174Y-135412463D01*
X149670391Y-135401813D01*
X149691695Y-135363060D01*
X149696733Y-135343437D01*
X149703137Y-135324734D01*
X149708033Y-135313420D01*
X149708033Y-135313419D01*
X149711181Y-135306145D01*
X149712420Y-135298322D01*
X149712423Y-135298312D01*
X149718099Y-135262476D01*
X149720505Y-135250856D01*
X149729528Y-135215711D01*
X149729528Y-135215710D01*
X149731500Y-135208030D01*
X149731500Y-135187776D01*
X149733051Y-135168065D01*
X149734980Y-135155886D01*
X149736220Y-135148057D01*
X149732059Y-135104038D01*
X149731500Y-135092181D01*
X149731500Y-121236763D01*
X149732027Y-121225579D01*
X149733701Y-121218091D01*
X149731562Y-121150032D01*
X149731500Y-121146075D01*
X149731500Y-121118144D01*
X149730994Y-121114138D01*
X149730061Y-121102292D01*
X149728922Y-121066037D01*
X149728673Y-121058110D01*
X149723022Y-121038658D01*
X149719014Y-121019306D01*
X149717468Y-121007068D01*
X149717467Y-121007066D01*
X149716474Y-120999203D01*
X149700194Y-120958086D01*
X149696359Y-120946885D01*
X149684018Y-120904406D01*
X149679985Y-120897587D01*
X149679983Y-120897582D01*
X149673707Y-120886971D01*
X149665010Y-120869221D01*
X149657552Y-120850383D01*
X149631571Y-120814623D01*
X149625053Y-120804701D01*
X149606578Y-120773460D01*
X149606574Y-120773455D01*
X149602542Y-120766637D01*
X149588218Y-120752313D01*
X149575376Y-120737278D01*
X149563472Y-120720893D01*
X149529406Y-120692711D01*
X149520627Y-120684722D01*
X147125405Y-118289500D01*
X147091379Y-118227188D01*
X147088500Y-118200405D01*
X147088500Y-108876500D01*
X147108502Y-108808379D01*
X147162158Y-108761886D01*
X147214500Y-108750500D01*
X147303134Y-108750500D01*
X147365316Y-108743745D01*
X147501705Y-108692615D01*
X147618261Y-108605261D01*
X147705615Y-108488705D01*
X147756745Y-108352316D01*
X147763500Y-108290134D01*
X147763500Y-106593866D01*
X147756745Y-106531684D01*
X147705615Y-106395295D01*
X147618261Y-106278739D01*
X147501705Y-106191385D01*
X147365316Y-106140255D01*
X147303134Y-106133500D01*
X145606866Y-106133500D01*
X145544684Y-106140255D01*
X145408295Y-106191385D01*
X145291739Y-106278739D01*
X145204385Y-106395295D01*
X145153255Y-106531684D01*
X145152083Y-106542474D01*
X145151197Y-106544606D01*
X145150575Y-106547222D01*
X145150152Y-106547121D01*
X145124845Y-106608035D01*
X145066483Y-106648463D01*
X144995529Y-106650922D01*
X144934510Y-106614629D01*
X144927511Y-106605969D01*
X144924354Y-106602207D01*
X144921198Y-106597700D01*
X144759300Y-106435802D01*
X144754792Y-106432645D01*
X144754789Y-106432643D01*
X144676611Y-106377902D01*
X144571749Y-106304477D01*
X144566767Y-106302154D01*
X144566762Y-106302151D01*
X144369225Y-106210039D01*
X144369224Y-106210039D01*
X144364243Y-106207716D01*
X144358935Y-106206294D01*
X144358933Y-106206293D01*
X144148402Y-106149881D01*
X144148400Y-106149881D01*
X144143087Y-106148457D01*
X143915000Y-106128502D01*
X143686913Y-106148457D01*
X143681600Y-106149881D01*
X143681598Y-106149881D01*
X143471067Y-106206293D01*
X143471065Y-106206294D01*
X143465757Y-106207716D01*
X143460776Y-106210039D01*
X143460775Y-106210039D01*
X143263238Y-106302151D01*
X143263233Y-106302154D01*
X143258251Y-106304477D01*
X143153389Y-106377902D01*
X143075211Y-106432643D01*
X143075208Y-106432645D01*
X143070700Y-106435802D01*
X142908802Y-106597700D01*
X142777477Y-106785251D01*
X142775154Y-106790233D01*
X142775151Y-106790238D01*
X142759195Y-106824457D01*
X142712278Y-106877742D01*
X142644001Y-106897203D01*
X142576041Y-106876661D01*
X142530805Y-106824457D01*
X142514849Y-106790238D01*
X142514846Y-106790233D01*
X142512523Y-106785251D01*
X142381198Y-106597700D01*
X142219300Y-106435802D01*
X142214792Y-106432645D01*
X142214789Y-106432643D01*
X142136611Y-106377902D01*
X142031749Y-106304477D01*
X142026767Y-106302154D01*
X142026762Y-106302151D01*
X141829225Y-106210039D01*
X141829224Y-106210039D01*
X141824243Y-106207716D01*
X141818935Y-106206294D01*
X141818933Y-106206293D01*
X141608402Y-106149881D01*
X141608400Y-106149881D01*
X141603087Y-106148457D01*
X141375000Y-106128502D01*
X141146913Y-106148457D01*
X141141600Y-106149881D01*
X141141598Y-106149881D01*
X140931067Y-106206293D01*
X140931065Y-106206294D01*
X140925757Y-106207716D01*
X140920776Y-106210039D01*
X140920775Y-106210039D01*
X140723238Y-106302151D01*
X140723233Y-106302154D01*
X140718251Y-106304477D01*
X140613389Y-106377902D01*
X140535211Y-106432643D01*
X140535208Y-106432645D01*
X140530700Y-106435802D01*
X140368802Y-106597700D01*
X140237477Y-106785251D01*
X140235154Y-106790233D01*
X140235151Y-106790238D01*
X140218919Y-106825049D01*
X140172002Y-106878334D01*
X140103725Y-106897795D01*
X140035765Y-106877253D01*
X139990529Y-106825049D01*
X139974414Y-106790489D01*
X139968931Y-106780993D01*
X139843972Y-106602533D01*
X139836916Y-106594125D01*
X139682875Y-106440084D01*
X139674467Y-106433028D01*
X139496007Y-106308069D01*
X139486511Y-106302586D01*
X139289053Y-106210510D01*
X139278761Y-106206764D01*
X139106497Y-106160606D01*
X139092401Y-106160942D01*
X139089000Y-106168884D01*
X139089000Y-108709967D01*
X139092973Y-108723498D01*
X139101522Y-108724727D01*
X139278761Y-108677236D01*
X139289053Y-108673490D01*
X139486511Y-108581414D01*
X139496007Y-108575931D01*
X139674467Y-108450972D01*
X139682875Y-108443916D01*
X139836916Y-108289875D01*
X139843972Y-108281467D01*
X139968931Y-108103007D01*
X139974414Y-108093511D01*
X139990529Y-108058951D01*
X140037446Y-108005666D01*
X140105723Y-107986205D01*
X140173683Y-108006747D01*
X140218919Y-108058951D01*
X140235151Y-108093762D01*
X140235154Y-108093767D01*
X140237477Y-108098749D01*
X140368802Y-108286300D01*
X140530700Y-108448198D01*
X140535208Y-108451355D01*
X140535211Y-108451357D01*
X140576542Y-108480297D01*
X140718251Y-108579523D01*
X140723233Y-108581846D01*
X140723238Y-108581849D01*
X140919765Y-108673490D01*
X140925757Y-108676284D01*
X140931065Y-108677706D01*
X140931067Y-108677707D01*
X141141598Y-108734119D01*
X141141600Y-108734119D01*
X141146913Y-108735543D01*
X141375000Y-108755498D01*
X141603087Y-108735543D01*
X141608400Y-108734119D01*
X141608402Y-108734119D01*
X141818933Y-108677707D01*
X141818935Y-108677706D01*
X141824243Y-108676284D01*
X141830235Y-108673490D01*
X142026762Y-108581849D01*
X142026767Y-108581846D01*
X142031749Y-108579523D01*
X142173458Y-108480297D01*
X142214789Y-108451357D01*
X142214792Y-108451355D01*
X142219300Y-108448198D01*
X142381198Y-108286300D01*
X142512523Y-108098749D01*
X142514846Y-108093767D01*
X142514849Y-108093762D01*
X142530805Y-108059543D01*
X142577722Y-108006258D01*
X142645999Y-107986797D01*
X142713959Y-108007339D01*
X142759195Y-108059543D01*
X142775151Y-108093762D01*
X142775154Y-108093767D01*
X142777477Y-108098749D01*
X142908802Y-108286300D01*
X143070700Y-108448198D01*
X143075208Y-108451355D01*
X143075211Y-108451357D01*
X143116542Y-108480297D01*
X143258251Y-108579523D01*
X143263233Y-108581846D01*
X143263238Y-108581849D01*
X143459765Y-108673490D01*
X143465757Y-108676284D01*
X143471065Y-108677706D01*
X143471067Y-108677707D01*
X143681598Y-108734119D01*
X143681600Y-108734119D01*
X143686913Y-108735543D01*
X143915000Y-108755498D01*
X144143087Y-108735543D01*
X144148400Y-108734119D01*
X144148402Y-108734119D01*
X144358933Y-108677707D01*
X144358935Y-108677706D01*
X144364243Y-108676284D01*
X144370235Y-108673490D01*
X144566762Y-108581849D01*
X144566767Y-108581846D01*
X144571749Y-108579523D01*
X144713458Y-108480297D01*
X144754789Y-108451357D01*
X144754792Y-108451355D01*
X144759300Y-108448198D01*
X144921198Y-108286300D01*
X144924357Y-108281789D01*
X144927892Y-108277576D01*
X144929026Y-108278527D01*
X144979071Y-108238529D01*
X145049690Y-108231224D01*
X145113049Y-108263258D01*
X145149030Y-108324462D01*
X145152082Y-108341517D01*
X145153255Y-108352316D01*
X145204385Y-108488705D01*
X145291739Y-108605261D01*
X145408295Y-108692615D01*
X145544684Y-108743745D01*
X145606866Y-108750500D01*
X145695500Y-108750500D01*
X145763621Y-108770502D01*
X145810114Y-108824158D01*
X145821500Y-108876500D01*
X145821500Y-118436233D01*
X145820973Y-118447416D01*
X145819298Y-118454909D01*
X145819547Y-118462835D01*
X145819547Y-118462836D01*
X145821438Y-118522986D01*
X145821500Y-118526945D01*
X145821500Y-118554856D01*
X145821997Y-118558790D01*
X145821997Y-118558791D01*
X145822005Y-118558856D01*
X145822938Y-118570693D01*
X145824327Y-118614889D01*
X145829978Y-118634339D01*
X145833987Y-118653700D01*
X145836526Y-118673797D01*
X145839445Y-118681168D01*
X145839445Y-118681170D01*
X145852804Y-118714912D01*
X145856649Y-118726142D01*
X145868982Y-118768593D01*
X145873015Y-118775412D01*
X145873017Y-118775417D01*
X145879293Y-118786028D01*
X145887988Y-118803776D01*
X145895448Y-118822617D01*
X145900110Y-118829033D01*
X145900110Y-118829034D01*
X145921436Y-118858387D01*
X145927952Y-118868307D01*
X145950458Y-118906362D01*
X145964779Y-118920683D01*
X145977619Y-118935716D01*
X145989528Y-118952107D01*
X145995634Y-118957158D01*
X146023605Y-118980298D01*
X146032384Y-118988288D01*
X148427595Y-121383499D01*
X148461621Y-121445811D01*
X148464500Y-121472594D01*
X148464500Y-134813406D01*
X148444498Y-134881527D01*
X148427595Y-134902501D01*
X145824500Y-137505595D01*
X145762188Y-137539621D01*
X145735405Y-137542500D01*
X122996594Y-137542500D01*
X122928473Y-137522498D01*
X122907499Y-137505595D01*
X120463038Y-135061133D01*
X122399612Y-135061133D01*
X122408325Y-135072653D01*
X122506018Y-135144284D01*
X122513928Y-135149227D01*
X122736890Y-135266533D01*
X122745453Y-135270256D01*
X122983304Y-135353318D01*
X122992313Y-135355732D01*
X123239842Y-135402727D01*
X123249098Y-135403781D01*
X123500857Y-135413673D01*
X123510171Y-135413347D01*
X123760615Y-135385920D01*
X123769792Y-135384219D01*
X124013431Y-135320074D01*
X124022251Y-135317037D01*
X124253736Y-135217583D01*
X124262008Y-135213276D01*
X124476249Y-135080700D01*
X124483188Y-135075658D01*
X124491518Y-135063019D01*
X124485456Y-135052666D01*
X123456812Y-134024022D01*
X123442868Y-134016408D01*
X123441035Y-134016539D01*
X123434420Y-134020790D01*
X122406270Y-135048940D01*
X122399612Y-135061133D01*
X120463038Y-135061133D01*
X119114405Y-133712500D01*
X119080379Y-133650188D01*
X119077500Y-133623405D01*
X119077500Y-133610523D01*
X121681898Y-133610523D01*
X121693987Y-133862175D01*
X121695124Y-133871435D01*
X121744274Y-134118535D01*
X121746768Y-134127528D01*
X121831900Y-134364639D01*
X121835700Y-134373174D01*
X121954946Y-134595101D01*
X121959957Y-134602968D01*
X122023446Y-134687990D01*
X122034704Y-134696439D01*
X122047123Y-134689667D01*
X123071978Y-133664812D01*
X123078356Y-133653132D01*
X123808408Y-133653132D01*
X123808539Y-133654965D01*
X123812790Y-133661580D01*
X124843913Y-134692703D01*
X124856293Y-134699463D01*
X124864634Y-134693219D01*
X124990765Y-134497127D01*
X124995212Y-134488936D01*
X125098691Y-134259222D01*
X125101882Y-134250455D01*
X125170269Y-134007976D01*
X125172129Y-133998834D01*
X125204116Y-133747396D01*
X125204597Y-133741108D01*
X125206847Y-133655160D01*
X125206696Y-133648851D01*
X125187912Y-133396074D01*
X125186536Y-133386868D01*
X125130929Y-133141126D01*
X125128205Y-133132215D01*
X125036888Y-132897392D01*
X125032877Y-132888983D01*
X124907854Y-132670240D01*
X124902643Y-132662514D01*
X124865391Y-132615261D01*
X124853466Y-132606790D01*
X124841934Y-132613276D01*
X123816022Y-133639188D01*
X123808408Y-133653132D01*
X123078356Y-133653132D01*
X123079592Y-133650868D01*
X123079461Y-133649035D01*
X123075210Y-133642420D01*
X122045321Y-132612531D01*
X122032013Y-132605264D01*
X122021974Y-132612386D01*
X122011761Y-132624666D01*
X122006346Y-132632258D01*
X121875646Y-132847646D01*
X121871408Y-132855963D01*
X121773981Y-133088299D01*
X121771020Y-133097149D01*
X121709006Y-133341331D01*
X121707384Y-133350528D01*
X121682143Y-133601198D01*
X121681898Y-133610523D01*
X119077500Y-133610523D01*
X119077500Y-132876847D01*
X119097502Y-132808726D01*
X119153762Y-132761079D01*
X119253972Y-132718025D01*
X119258262Y-132716182D01*
X119393883Y-132632258D01*
X119476547Y-132581104D01*
X119476548Y-132581104D01*
X119480519Y-132578646D01*
X119484082Y-132575629D01*
X119484087Y-132575626D01*
X119676439Y-132412787D01*
X119676440Y-132412786D01*
X119680005Y-132409768D01*
X119789632Y-132284763D01*
X119828184Y-132240803D01*
X122397216Y-132240803D01*
X122401789Y-132250579D01*
X123431188Y-133279978D01*
X123445132Y-133287592D01*
X123446965Y-133287461D01*
X123453580Y-133283210D01*
X124482419Y-132254371D01*
X124488803Y-132242681D01*
X124479391Y-132230570D01*
X124342593Y-132135670D01*
X124334565Y-132130942D01*
X124108593Y-132019505D01*
X124099960Y-132016017D01*
X123859998Y-131939205D01*
X123850938Y-131937029D01*
X123602260Y-131896529D01*
X123592973Y-131895717D01*
X123341053Y-131892419D01*
X123331742Y-131892989D01*
X123082097Y-131926964D01*
X123072978Y-131928902D01*
X122831098Y-131999404D01*
X122822367Y-132002667D01*
X122593558Y-132108151D01*
X122585406Y-132112670D01*
X122406353Y-132230062D01*
X122397216Y-132240803D01*
X119828184Y-132240803D01*
X119849257Y-132216774D01*
X119849261Y-132216769D01*
X119852339Y-132213259D01*
X119993733Y-131993437D01*
X120101083Y-131755129D01*
X120141629Y-131611366D01*
X120170760Y-131508076D01*
X120170761Y-131508073D01*
X120172030Y-131503572D01*
X120188832Y-131371496D01*
X120204616Y-131247421D01*
X120204616Y-131247417D01*
X120205014Y-131244291D01*
X120207431Y-131152000D01*
X120204001Y-131105839D01*
X126681173Y-131105839D01*
X126693713Y-131366908D01*
X126744704Y-131623256D01*
X126833026Y-131869252D01*
X126835242Y-131873376D01*
X126903410Y-132000243D01*
X126956737Y-132099491D01*
X126959532Y-132103234D01*
X126959534Y-132103237D01*
X127110330Y-132305177D01*
X127110335Y-132305183D01*
X127113122Y-132308915D01*
X127116431Y-132312195D01*
X127116436Y-132312201D01*
X127262952Y-132457443D01*
X127298743Y-132492923D01*
X127302505Y-132495681D01*
X127302508Y-132495684D01*
X127482924Y-132627970D01*
X127509524Y-132647474D01*
X127513667Y-132649654D01*
X127513669Y-132649655D01*
X127736684Y-132766989D01*
X127736689Y-132766991D01*
X127740834Y-132769172D01*
X127810501Y-132793501D01*
X127976351Y-132851419D01*
X127987590Y-132855344D01*
X127992183Y-132856216D01*
X128239785Y-132903224D01*
X128239788Y-132903224D01*
X128244374Y-132904095D01*
X128374959Y-132909226D01*
X128500875Y-132914174D01*
X128500881Y-132914174D01*
X128505543Y-132914357D01*
X128584977Y-132905657D01*
X128760707Y-132886412D01*
X128760712Y-132886411D01*
X128765360Y-132885902D01*
X128769884Y-132884711D01*
X129013594Y-132820548D01*
X129013596Y-132820547D01*
X129018117Y-132819357D01*
X129042862Y-132808726D01*
X129180571Y-132749561D01*
X129251056Y-132741049D01*
X129314953Y-132771994D01*
X129351977Y-132832573D01*
X129350372Y-132903551D01*
X129346506Y-132914054D01*
X129271697Y-133092455D01*
X129207359Y-133345783D01*
X129181173Y-133605839D01*
X129181397Y-133610505D01*
X129181397Y-133610511D01*
X129186296Y-133712500D01*
X129193713Y-133866908D01*
X129244704Y-134123256D01*
X129333026Y-134369252D01*
X129353350Y-134407077D01*
X129399753Y-134493437D01*
X129456737Y-134599491D01*
X129459532Y-134603234D01*
X129459534Y-134603237D01*
X129610330Y-134805177D01*
X129610335Y-134805183D01*
X129613122Y-134808915D01*
X129616431Y-134812195D01*
X129616436Y-134812201D01*
X129795426Y-134989635D01*
X129798743Y-134992923D01*
X129802505Y-134995681D01*
X129802508Y-134995684D01*
X130005173Y-135144284D01*
X130009524Y-135147474D01*
X130013667Y-135149654D01*
X130013669Y-135149655D01*
X130236684Y-135266989D01*
X130236689Y-135266991D01*
X130240834Y-135269172D01*
X130487590Y-135355344D01*
X130492183Y-135356216D01*
X130739785Y-135403224D01*
X130739788Y-135403224D01*
X130744374Y-135404095D01*
X130874959Y-135409226D01*
X131000875Y-135414174D01*
X131000881Y-135414174D01*
X131005543Y-135414357D01*
X131084977Y-135405657D01*
X131260707Y-135386412D01*
X131260712Y-135386411D01*
X131265360Y-135385902D01*
X131325757Y-135370001D01*
X131513594Y-135320548D01*
X131513596Y-135320547D01*
X131518117Y-135319357D01*
X131567101Y-135298312D01*
X131664161Y-135256611D01*
X131758262Y-135216182D01*
X131868352Y-135148057D01*
X131976547Y-135081104D01*
X131976548Y-135081104D01*
X131980519Y-135078646D01*
X131984082Y-135075629D01*
X131984087Y-135075626D01*
X132176439Y-134912787D01*
X132176440Y-134912786D01*
X132180005Y-134909768D01*
X132218743Y-134865596D01*
X132349257Y-134716774D01*
X132349261Y-134716769D01*
X132352339Y-134713259D01*
X132493733Y-134493437D01*
X132601083Y-134255129D01*
X132622011Y-134180926D01*
X132670760Y-134008076D01*
X132670761Y-134008073D01*
X132672030Y-134003572D01*
X132689269Y-133868058D01*
X132704616Y-133747421D01*
X132704616Y-133747417D01*
X132705014Y-133744291D01*
X132705098Y-133741108D01*
X132707348Y-133655160D01*
X132707431Y-133652000D01*
X132688061Y-133391348D01*
X132678825Y-133350528D01*
X132631408Y-133140980D01*
X132630377Y-133136423D01*
X132540102Y-132904278D01*
X132537340Y-132897176D01*
X132537339Y-132897173D01*
X132535647Y-132892823D01*
X132531692Y-132885902D01*
X132478880Y-132793501D01*
X132405951Y-132665902D01*
X132244138Y-132460643D01*
X132053763Y-132281557D01*
X131839009Y-132132576D01*
X131797754Y-132112231D01*
X131619864Y-132024506D01*
X131567615Y-131976438D01*
X131549648Y-131907752D01*
X131571667Y-131840257D01*
X131626682Y-131795380D01*
X131675592Y-131785500D01*
X133437233Y-131785500D01*
X133448416Y-131786027D01*
X133455909Y-131787702D01*
X133463835Y-131787453D01*
X133463836Y-131787453D01*
X133523986Y-131785562D01*
X133527945Y-131785500D01*
X133555856Y-131785500D01*
X133559791Y-131785003D01*
X133559856Y-131784995D01*
X133571693Y-131784062D01*
X133603951Y-131783048D01*
X133607970Y-131782922D01*
X133615889Y-131782673D01*
X133635343Y-131777021D01*
X133654700Y-131773013D01*
X133666930Y-131771468D01*
X133666931Y-131771468D01*
X133674797Y-131770474D01*
X133682168Y-131767555D01*
X133682170Y-131767555D01*
X133715912Y-131754196D01*
X133727142Y-131750351D01*
X133761983Y-131740229D01*
X133761984Y-131740229D01*
X133769593Y-131738018D01*
X133776412Y-131733985D01*
X133776417Y-131733983D01*
X133787028Y-131727707D01*
X133804776Y-131719012D01*
X133823617Y-131711552D01*
X133859387Y-131685564D01*
X133869307Y-131679048D01*
X133900535Y-131660580D01*
X133900538Y-131660578D01*
X133907362Y-131656542D01*
X133921683Y-131642221D01*
X133936717Y-131629380D01*
X133946694Y-131622131D01*
X133953107Y-131617472D01*
X133981298Y-131583395D01*
X133989288Y-131574616D01*
X135730752Y-129833152D01*
X135793064Y-129799126D01*
X135852459Y-129800541D01*
X135910591Y-129816118D01*
X135910602Y-129816120D01*
X135915913Y-129817543D01*
X136144000Y-129837498D01*
X136372087Y-129817543D01*
X136377400Y-129816119D01*
X136377402Y-129816119D01*
X136587933Y-129759707D01*
X136587935Y-129759706D01*
X136593243Y-129758284D01*
X136610129Y-129750410D01*
X136795762Y-129663849D01*
X136795767Y-129663846D01*
X136800749Y-129661523D01*
X136905611Y-129588098D01*
X136983789Y-129533357D01*
X136983792Y-129533355D01*
X136988300Y-129530198D01*
X137150198Y-129368300D01*
X137281523Y-129180749D01*
X137283846Y-129175767D01*
X137283849Y-129175762D01*
X137375961Y-128978225D01*
X137375961Y-128978224D01*
X137378284Y-128973243D01*
X137420541Y-128815541D01*
X137436119Y-128757402D01*
X137436120Y-128757398D01*
X137437543Y-128752087D01*
X137457498Y-128524000D01*
X137437543Y-128295913D01*
X137378284Y-128074757D01*
X137375961Y-128069775D01*
X137283849Y-127872238D01*
X137283846Y-127872233D01*
X137281523Y-127867251D01*
X137150198Y-127679700D01*
X136988300Y-127517802D01*
X136983792Y-127514645D01*
X136983789Y-127514643D01*
X136905611Y-127459902D01*
X136800749Y-127386477D01*
X136795767Y-127384154D01*
X136795762Y-127384151D01*
X136598225Y-127292039D01*
X136598224Y-127292039D01*
X136593243Y-127289716D01*
X136587935Y-127288294D01*
X136587933Y-127288293D01*
X136377402Y-127231881D01*
X136377400Y-127231881D01*
X136372087Y-127230457D01*
X136144000Y-127210502D01*
X135915913Y-127230457D01*
X135910600Y-127231881D01*
X135910598Y-127231881D01*
X135700067Y-127288293D01*
X135700065Y-127288294D01*
X135694757Y-127289716D01*
X135689776Y-127292039D01*
X135689775Y-127292039D01*
X135492238Y-127384151D01*
X135492233Y-127384154D01*
X135487251Y-127386477D01*
X135382389Y-127459902D01*
X135304211Y-127514643D01*
X135304208Y-127514645D01*
X135299700Y-127517802D01*
X135137802Y-127679700D01*
X135006477Y-127867251D01*
X135004154Y-127872233D01*
X135004151Y-127872238D01*
X134912039Y-128069775D01*
X134909716Y-128074757D01*
X134850457Y-128295913D01*
X134830502Y-128524000D01*
X134850457Y-128752087D01*
X134867460Y-128815541D01*
X134865770Y-128886518D01*
X134834848Y-128937247D01*
X133290500Y-130481595D01*
X133228188Y-130515621D01*
X133201405Y-130518500D01*
X130170713Y-130518500D01*
X130102592Y-130498498D01*
X130056099Y-130444842D01*
X130053280Y-130438166D01*
X130037342Y-130397180D01*
X130037338Y-130397173D01*
X130035647Y-130392823D01*
X129905951Y-130165902D01*
X129744138Y-129960643D01*
X129553763Y-129781557D01*
X129339009Y-129632576D01*
X129334816Y-129630508D01*
X129108781Y-129519040D01*
X129108778Y-129519039D01*
X129104593Y-129516975D01*
X129058449Y-129502204D01*
X128860123Y-129438720D01*
X128855665Y-129437293D01*
X128597693Y-129395279D01*
X128483942Y-129393790D01*
X128341022Y-129391919D01*
X128341019Y-129391919D01*
X128336345Y-129391858D01*
X128077362Y-129427104D01*
X127826433Y-129500243D01*
X127822180Y-129502203D01*
X127822179Y-129502204D01*
X127785659Y-129519040D01*
X127589072Y-129609668D01*
X127550067Y-129635241D01*
X127374404Y-129750410D01*
X127374399Y-129750414D01*
X127370491Y-129752976D01*
X127175494Y-129927018D01*
X127008363Y-130127970D01*
X126872771Y-130351419D01*
X126771697Y-130592455D01*
X126707359Y-130845783D01*
X126681173Y-131105839D01*
X120204001Y-131105839D01*
X120188061Y-130891348D01*
X120176725Y-130841248D01*
X120131408Y-130640980D01*
X120130377Y-130636423D01*
X120083400Y-130515621D01*
X120037340Y-130397176D01*
X120037339Y-130397173D01*
X120035647Y-130392823D01*
X119905951Y-130165902D01*
X119744138Y-129960643D01*
X119553763Y-129781557D01*
X119339009Y-129632576D01*
X119334816Y-129630508D01*
X119108781Y-129519040D01*
X119108778Y-129519039D01*
X119104593Y-129516975D01*
X119058449Y-129502204D01*
X118860123Y-129438720D01*
X118855665Y-129437293D01*
X118597693Y-129395279D01*
X118483942Y-129393790D01*
X118341022Y-129391919D01*
X118341019Y-129391919D01*
X118336345Y-129391858D01*
X118077362Y-129427104D01*
X117826433Y-129500243D01*
X117822180Y-129502203D01*
X117822179Y-129502204D01*
X117785659Y-129519040D01*
X117589072Y-129609668D01*
X117550067Y-129635241D01*
X117374404Y-129750410D01*
X117374399Y-129750414D01*
X117370491Y-129752976D01*
X117175494Y-129927018D01*
X117008363Y-130127970D01*
X116872771Y-130351419D01*
X116771697Y-130592455D01*
X116707359Y-130845783D01*
X116681173Y-131105839D01*
X116693713Y-131366908D01*
X116744704Y-131623256D01*
X116833026Y-131869252D01*
X116837056Y-131876753D01*
X116851680Y-131946225D01*
X116826422Y-132012576D01*
X116769301Y-132054739D01*
X116698452Y-132059327D01*
X116670340Y-132049398D01*
X116604593Y-132016975D01*
X116590851Y-132012576D01*
X116360123Y-131938720D01*
X116355665Y-131937293D01*
X116097693Y-131895279D01*
X115983942Y-131893790D01*
X115841022Y-131891919D01*
X115841019Y-131891919D01*
X115836345Y-131891858D01*
X115577362Y-131927104D01*
X115326433Y-132000243D01*
X115322180Y-132002203D01*
X115322179Y-132002204D01*
X115273803Y-132024506D01*
X115089072Y-132109668D01*
X115050067Y-132135241D01*
X114874404Y-132250410D01*
X114874399Y-132250414D01*
X114870491Y-132252976D01*
X114675494Y-132427018D01*
X114508363Y-132627970D01*
X114505934Y-132631973D01*
X114392227Y-132819357D01*
X114372771Y-132851419D01*
X114271697Y-133092455D01*
X114207359Y-133345783D01*
X114181173Y-133605839D01*
X96520500Y-133605839D01*
X96520500Y-122682000D01*
X109581502Y-122682000D01*
X109601457Y-122910087D01*
X109660716Y-123131243D01*
X109663039Y-123136224D01*
X109663039Y-123136225D01*
X109755151Y-123333762D01*
X109755154Y-123333767D01*
X109757477Y-123338749D01*
X109888802Y-123526300D01*
X110050700Y-123688198D01*
X110055208Y-123691355D01*
X110055211Y-123691357D01*
X110133389Y-123746098D01*
X110238251Y-123819523D01*
X110243233Y-123821846D01*
X110243238Y-123821849D01*
X110413825Y-123901394D01*
X110445757Y-123916284D01*
X110451065Y-123917706D01*
X110451067Y-123917707D01*
X110661598Y-123974119D01*
X110661600Y-123974119D01*
X110666913Y-123975543D01*
X110895000Y-123995498D01*
X111123087Y-123975543D01*
X111128400Y-123974119D01*
X111128402Y-123974119D01*
X111338933Y-123917707D01*
X111338935Y-123917706D01*
X111344243Y-123916284D01*
X111376175Y-123901394D01*
X111546762Y-123821849D01*
X111546767Y-123821846D01*
X111551749Y-123819523D01*
X111656611Y-123746098D01*
X111734789Y-123691357D01*
X111734792Y-123691355D01*
X111739300Y-123688198D01*
X111901198Y-123526300D01*
X112032523Y-123338749D01*
X112034846Y-123333767D01*
X112034849Y-123333762D01*
X112050805Y-123299543D01*
X112097722Y-123246258D01*
X112165999Y-123226797D01*
X112233959Y-123247339D01*
X112279195Y-123299543D01*
X112295151Y-123333762D01*
X112295154Y-123333767D01*
X112297477Y-123338749D01*
X112428802Y-123526300D01*
X112590700Y-123688198D01*
X112595208Y-123691355D01*
X112595211Y-123691357D01*
X112673389Y-123746098D01*
X112778251Y-123819523D01*
X112783233Y-123821846D01*
X112783238Y-123821849D01*
X112953825Y-123901394D01*
X112985757Y-123916284D01*
X112991065Y-123917706D01*
X112991067Y-123917707D01*
X113201598Y-123974119D01*
X113201600Y-123974119D01*
X113206913Y-123975543D01*
X113435000Y-123995498D01*
X113663087Y-123975543D01*
X113668400Y-123974119D01*
X113668402Y-123974119D01*
X113878933Y-123917707D01*
X113878935Y-123917706D01*
X113884243Y-123916284D01*
X113916175Y-123901394D01*
X114086762Y-123821849D01*
X114086767Y-123821846D01*
X114091749Y-123819523D01*
X114196611Y-123746098D01*
X114274789Y-123691357D01*
X114274792Y-123691355D01*
X114279300Y-123688198D01*
X114441198Y-123526300D01*
X114572523Y-123338749D01*
X114574846Y-123333767D01*
X114574849Y-123333762D01*
X114590805Y-123299543D01*
X114637722Y-123246258D01*
X114705999Y-123226797D01*
X114773959Y-123247339D01*
X114819195Y-123299543D01*
X114835151Y-123333762D01*
X114835154Y-123333767D01*
X114837477Y-123338749D01*
X114968802Y-123526300D01*
X115130700Y-123688198D01*
X115135208Y-123691355D01*
X115135211Y-123691357D01*
X115213389Y-123746098D01*
X115318251Y-123819523D01*
X115323233Y-123821846D01*
X115323238Y-123821849D01*
X115493825Y-123901394D01*
X115525757Y-123916284D01*
X115531065Y-123917706D01*
X115531067Y-123917707D01*
X115741598Y-123974119D01*
X115741600Y-123974119D01*
X115746913Y-123975543D01*
X115975000Y-123995498D01*
X116203087Y-123975543D01*
X116208400Y-123974119D01*
X116208402Y-123974119D01*
X116418933Y-123917707D01*
X116418935Y-123917706D01*
X116424243Y-123916284D01*
X116456175Y-123901394D01*
X116626762Y-123821849D01*
X116626767Y-123821846D01*
X116631749Y-123819523D01*
X116736611Y-123746098D01*
X116814789Y-123691357D01*
X116814792Y-123691355D01*
X116819300Y-123688198D01*
X116981198Y-123526300D01*
X117112523Y-123338749D01*
X117114846Y-123333767D01*
X117114849Y-123333762D01*
X117130805Y-123299543D01*
X117177722Y-123246258D01*
X117245999Y-123226797D01*
X117313959Y-123247339D01*
X117359195Y-123299543D01*
X117375151Y-123333762D01*
X117375154Y-123333767D01*
X117377477Y-123338749D01*
X117508802Y-123526300D01*
X117670700Y-123688198D01*
X117675208Y-123691355D01*
X117675211Y-123691357D01*
X117753389Y-123746098D01*
X117858251Y-123819523D01*
X117863233Y-123821846D01*
X117863238Y-123821849D01*
X118033825Y-123901394D01*
X118065757Y-123916284D01*
X118071065Y-123917706D01*
X118071067Y-123917707D01*
X118281598Y-123974119D01*
X118281600Y-123974119D01*
X118286913Y-123975543D01*
X118515000Y-123995498D01*
X118743087Y-123975543D01*
X118748400Y-123974119D01*
X118748402Y-123974119D01*
X118958933Y-123917707D01*
X118958935Y-123917706D01*
X118964243Y-123916284D01*
X118996175Y-123901394D01*
X119166762Y-123821849D01*
X119166767Y-123821846D01*
X119171749Y-123819523D01*
X119276611Y-123746098D01*
X119354789Y-123691357D01*
X119354792Y-123691355D01*
X119359300Y-123688198D01*
X119521198Y-123526300D01*
X119652523Y-123338749D01*
X119654846Y-123333767D01*
X119654849Y-123333762D01*
X119670805Y-123299543D01*
X119717722Y-123246258D01*
X119785999Y-123226797D01*
X119853959Y-123247339D01*
X119899195Y-123299543D01*
X119915151Y-123333762D01*
X119915154Y-123333767D01*
X119917477Y-123338749D01*
X120048802Y-123526300D01*
X120210700Y-123688198D01*
X120215208Y-123691355D01*
X120215211Y-123691357D01*
X120293389Y-123746098D01*
X120398251Y-123819523D01*
X120403233Y-123821846D01*
X120403238Y-123821849D01*
X120573825Y-123901394D01*
X120605757Y-123916284D01*
X120611065Y-123917706D01*
X120611067Y-123917707D01*
X120821598Y-123974119D01*
X120821600Y-123974119D01*
X120826913Y-123975543D01*
X121055000Y-123995498D01*
X121283087Y-123975543D01*
X121288400Y-123974119D01*
X121288402Y-123974119D01*
X121498933Y-123917707D01*
X121498935Y-123917706D01*
X121504243Y-123916284D01*
X121536175Y-123901394D01*
X121706762Y-123821849D01*
X121706767Y-123821846D01*
X121711749Y-123819523D01*
X121816611Y-123746098D01*
X121894789Y-123691357D01*
X121894792Y-123691355D01*
X121899300Y-123688198D01*
X122061198Y-123526300D01*
X122192523Y-123338749D01*
X122194846Y-123333767D01*
X122194849Y-123333762D01*
X122210805Y-123299543D01*
X122257722Y-123246258D01*
X122325999Y-123226797D01*
X122393959Y-123247339D01*
X122439195Y-123299543D01*
X122455151Y-123333762D01*
X122455154Y-123333767D01*
X122457477Y-123338749D01*
X122588802Y-123526300D01*
X122750700Y-123688198D01*
X122755208Y-123691355D01*
X122755211Y-123691357D01*
X122833389Y-123746098D01*
X122938251Y-123819523D01*
X122943233Y-123821846D01*
X122943238Y-123821849D01*
X123113825Y-123901394D01*
X123145757Y-123916284D01*
X123151065Y-123917706D01*
X123151067Y-123917707D01*
X123361598Y-123974119D01*
X123361600Y-123974119D01*
X123366913Y-123975543D01*
X123595000Y-123995498D01*
X123823087Y-123975543D01*
X123828400Y-123974119D01*
X123828402Y-123974119D01*
X124038933Y-123917707D01*
X124038935Y-123917706D01*
X124044243Y-123916284D01*
X124076175Y-123901394D01*
X124246762Y-123821849D01*
X124246767Y-123821846D01*
X124251749Y-123819523D01*
X124356611Y-123746098D01*
X124434789Y-123691357D01*
X124434792Y-123691355D01*
X124439300Y-123688198D01*
X124601198Y-123526300D01*
X124732523Y-123338749D01*
X124734846Y-123333767D01*
X124734849Y-123333762D01*
X124750805Y-123299543D01*
X124797722Y-123246258D01*
X124865999Y-123226797D01*
X124933959Y-123247339D01*
X124979195Y-123299543D01*
X124995151Y-123333762D01*
X124995154Y-123333767D01*
X124997477Y-123338749D01*
X125128802Y-123526300D01*
X125290700Y-123688198D01*
X125295208Y-123691355D01*
X125295211Y-123691357D01*
X125373389Y-123746098D01*
X125478251Y-123819523D01*
X125483233Y-123821846D01*
X125483238Y-123821849D01*
X125653825Y-123901394D01*
X125685757Y-123916284D01*
X125691065Y-123917706D01*
X125691067Y-123917707D01*
X125901598Y-123974119D01*
X125901600Y-123974119D01*
X125906913Y-123975543D01*
X126135000Y-123995498D01*
X126363087Y-123975543D01*
X126368400Y-123974119D01*
X126368402Y-123974119D01*
X126578933Y-123917707D01*
X126578935Y-123917706D01*
X126584243Y-123916284D01*
X126616175Y-123901394D01*
X126786762Y-123821849D01*
X126786767Y-123821846D01*
X126791749Y-123819523D01*
X126896611Y-123746098D01*
X126974789Y-123691357D01*
X126974792Y-123691355D01*
X126979300Y-123688198D01*
X127141198Y-123526300D01*
X127272523Y-123338749D01*
X127274846Y-123333767D01*
X127274849Y-123333762D01*
X127290805Y-123299543D01*
X127337722Y-123246258D01*
X127405999Y-123226797D01*
X127473959Y-123247339D01*
X127519195Y-123299543D01*
X127535151Y-123333762D01*
X127535154Y-123333767D01*
X127537477Y-123338749D01*
X127668802Y-123526300D01*
X127830700Y-123688198D01*
X127835208Y-123691355D01*
X127835211Y-123691357D01*
X127913389Y-123746098D01*
X128018251Y-123819523D01*
X128023233Y-123821846D01*
X128023238Y-123821849D01*
X128193825Y-123901394D01*
X128225757Y-123916284D01*
X128231065Y-123917706D01*
X128231067Y-123917707D01*
X128441598Y-123974119D01*
X128441600Y-123974119D01*
X128446913Y-123975543D01*
X128675000Y-123995498D01*
X128903087Y-123975543D01*
X128908400Y-123974119D01*
X128908402Y-123974119D01*
X129118933Y-123917707D01*
X129118935Y-123917706D01*
X129124243Y-123916284D01*
X129156175Y-123901394D01*
X129326762Y-123821849D01*
X129326767Y-123821846D01*
X129331749Y-123819523D01*
X129436611Y-123746098D01*
X129514789Y-123691357D01*
X129514792Y-123691355D01*
X129519300Y-123688198D01*
X129681198Y-123526300D01*
X129812523Y-123338749D01*
X129814846Y-123333767D01*
X129814849Y-123333762D01*
X129830805Y-123299543D01*
X129877722Y-123246258D01*
X129945999Y-123226797D01*
X130013959Y-123247339D01*
X130059195Y-123299543D01*
X130075151Y-123333762D01*
X130075154Y-123333767D01*
X130077477Y-123338749D01*
X130208802Y-123526300D01*
X130370700Y-123688198D01*
X130375208Y-123691355D01*
X130375211Y-123691357D01*
X130453389Y-123746098D01*
X130558251Y-123819523D01*
X130563233Y-123821846D01*
X130563238Y-123821849D01*
X130733825Y-123901394D01*
X130765757Y-123916284D01*
X130771065Y-123917706D01*
X130771067Y-123917707D01*
X130981598Y-123974119D01*
X130981600Y-123974119D01*
X130986913Y-123975543D01*
X131215000Y-123995498D01*
X131443087Y-123975543D01*
X131448400Y-123974119D01*
X131448402Y-123974119D01*
X131658933Y-123917707D01*
X131658935Y-123917706D01*
X131664243Y-123916284D01*
X131696175Y-123901394D01*
X131866762Y-123821849D01*
X131866767Y-123821846D01*
X131871749Y-123819523D01*
X131976611Y-123746098D01*
X132054789Y-123691357D01*
X132054792Y-123691355D01*
X132059300Y-123688198D01*
X132221198Y-123526300D01*
X132352523Y-123338749D01*
X132354846Y-123333767D01*
X132354849Y-123333762D01*
X132370805Y-123299543D01*
X132417722Y-123246258D01*
X132485999Y-123226797D01*
X132553959Y-123247339D01*
X132599195Y-123299543D01*
X132615151Y-123333762D01*
X132615154Y-123333767D01*
X132617477Y-123338749D01*
X132748802Y-123526300D01*
X132910700Y-123688198D01*
X132915208Y-123691355D01*
X132915211Y-123691357D01*
X132993389Y-123746098D01*
X133098251Y-123819523D01*
X133103233Y-123821846D01*
X133103238Y-123821849D01*
X133273825Y-123901394D01*
X133305757Y-123916284D01*
X133311065Y-123917706D01*
X133311067Y-123917707D01*
X133521598Y-123974119D01*
X133521600Y-123974119D01*
X133526913Y-123975543D01*
X133755000Y-123995498D01*
X133983087Y-123975543D01*
X133988400Y-123974119D01*
X133988402Y-123974119D01*
X134198933Y-123917707D01*
X134198935Y-123917706D01*
X134204243Y-123916284D01*
X134236175Y-123901394D01*
X134406762Y-123821849D01*
X134406767Y-123821846D01*
X134411749Y-123819523D01*
X134516611Y-123746098D01*
X134594789Y-123691357D01*
X134594792Y-123691355D01*
X134599300Y-123688198D01*
X134761198Y-123526300D01*
X134892523Y-123338749D01*
X134894846Y-123333767D01*
X134894849Y-123333762D01*
X134910805Y-123299543D01*
X134957722Y-123246258D01*
X135025999Y-123226797D01*
X135093959Y-123247339D01*
X135139195Y-123299543D01*
X135155151Y-123333762D01*
X135155154Y-123333767D01*
X135157477Y-123338749D01*
X135288802Y-123526300D01*
X135450700Y-123688198D01*
X135455208Y-123691355D01*
X135455211Y-123691357D01*
X135533389Y-123746098D01*
X135638251Y-123819523D01*
X135643233Y-123821846D01*
X135643238Y-123821849D01*
X135813825Y-123901394D01*
X135845757Y-123916284D01*
X135851065Y-123917706D01*
X135851067Y-123917707D01*
X136061598Y-123974119D01*
X136061600Y-123974119D01*
X136066913Y-123975543D01*
X136295000Y-123995498D01*
X136523087Y-123975543D01*
X136528400Y-123974119D01*
X136528402Y-123974119D01*
X136738933Y-123917707D01*
X136738935Y-123917706D01*
X136744243Y-123916284D01*
X136776175Y-123901394D01*
X136946762Y-123821849D01*
X136946767Y-123821846D01*
X136951749Y-123819523D01*
X137056611Y-123746098D01*
X137134789Y-123691357D01*
X137134792Y-123691355D01*
X137139300Y-123688198D01*
X137301198Y-123526300D01*
X137432523Y-123338749D01*
X137434846Y-123333767D01*
X137434849Y-123333762D01*
X137450805Y-123299543D01*
X137497722Y-123246258D01*
X137565999Y-123226797D01*
X137633959Y-123247339D01*
X137679195Y-123299543D01*
X137695151Y-123333762D01*
X137695154Y-123333767D01*
X137697477Y-123338749D01*
X137828802Y-123526300D01*
X137990700Y-123688198D01*
X137995208Y-123691355D01*
X137995211Y-123691357D01*
X138147771Y-123798181D01*
X138192099Y-123853638D01*
X138201500Y-123901394D01*
X138201500Y-125802233D01*
X138200973Y-125813416D01*
X138199298Y-125820909D01*
X138199547Y-125828835D01*
X138199547Y-125828836D01*
X138201438Y-125888986D01*
X138201500Y-125892945D01*
X138201500Y-125920856D01*
X138201997Y-125924790D01*
X138201997Y-125924791D01*
X138202005Y-125924856D01*
X138202938Y-125936693D01*
X138204327Y-125980889D01*
X138209978Y-126000339D01*
X138213987Y-126019700D01*
X138216526Y-126039797D01*
X138219445Y-126047168D01*
X138219445Y-126047170D01*
X138232804Y-126080912D01*
X138236649Y-126092142D01*
X138248982Y-126134593D01*
X138253015Y-126141412D01*
X138253017Y-126141417D01*
X138259293Y-126152028D01*
X138267988Y-126169776D01*
X138275448Y-126188617D01*
X138280110Y-126195033D01*
X138280110Y-126195034D01*
X138301436Y-126224387D01*
X138307952Y-126234307D01*
X138330458Y-126272362D01*
X138344779Y-126286683D01*
X138357619Y-126301716D01*
X138369528Y-126318107D01*
X138375634Y-126323158D01*
X138403605Y-126346298D01*
X138412384Y-126354288D01*
X140974343Y-128916247D01*
X140981887Y-128924537D01*
X140986000Y-128931018D01*
X140991777Y-128936443D01*
X141035667Y-128977658D01*
X141038509Y-128980413D01*
X141058230Y-129000134D01*
X141061425Y-129002612D01*
X141070447Y-129010318D01*
X141102679Y-129040586D01*
X141109628Y-129044406D01*
X141120432Y-129050346D01*
X141136956Y-129061199D01*
X141152959Y-129073613D01*
X141193543Y-129091176D01*
X141204173Y-129096383D01*
X141242940Y-129117695D01*
X141250617Y-129119666D01*
X141250622Y-129119668D01*
X141262558Y-129122732D01*
X141281266Y-129129137D01*
X141299855Y-129137181D01*
X141307680Y-129138420D01*
X141307682Y-129138421D01*
X141343519Y-129144097D01*
X141355140Y-129146504D01*
X141390289Y-129155528D01*
X141397970Y-129157500D01*
X141418231Y-129157500D01*
X141437940Y-129159051D01*
X141457943Y-129162219D01*
X141465835Y-129161473D01*
X141471062Y-129160979D01*
X141501954Y-129158059D01*
X141513811Y-129157500D01*
X142544606Y-129157500D01*
X142612727Y-129177502D01*
X142647819Y-129211229D01*
X142757802Y-129368300D01*
X142919700Y-129530198D01*
X142924208Y-129533355D01*
X142924211Y-129533357D01*
X143002389Y-129588098D01*
X143107251Y-129661523D01*
X143112233Y-129663846D01*
X143112238Y-129663849D01*
X143297871Y-129750410D01*
X143314757Y-129758284D01*
X143320065Y-129759706D01*
X143320067Y-129759707D01*
X143530598Y-129816119D01*
X143530600Y-129816119D01*
X143535913Y-129817543D01*
X143764000Y-129837498D01*
X143992087Y-129817543D01*
X143997400Y-129816119D01*
X143997402Y-129816119D01*
X144207933Y-129759707D01*
X144207935Y-129759706D01*
X144213243Y-129758284D01*
X144230129Y-129750410D01*
X144415762Y-129663849D01*
X144415767Y-129663846D01*
X144420749Y-129661523D01*
X144525611Y-129588098D01*
X144603789Y-129533357D01*
X144603792Y-129533355D01*
X144608300Y-129530198D01*
X144770198Y-129368300D01*
X144901523Y-129180749D01*
X144903846Y-129175767D01*
X144903849Y-129175762D01*
X144995961Y-128978225D01*
X144995961Y-128978224D01*
X144998284Y-128973243D01*
X145040541Y-128815541D01*
X145056119Y-128757402D01*
X145056120Y-128757398D01*
X145057543Y-128752087D01*
X145077498Y-128524000D01*
X145057543Y-128295913D01*
X144998284Y-128074757D01*
X144995961Y-128069775D01*
X144903849Y-127872238D01*
X144903846Y-127872233D01*
X144901523Y-127867251D01*
X144770198Y-127679700D01*
X144608300Y-127517802D01*
X144603792Y-127514645D01*
X144603789Y-127514643D01*
X144525611Y-127459902D01*
X144420749Y-127386477D01*
X144415767Y-127384154D01*
X144415762Y-127384151D01*
X144218225Y-127292039D01*
X144218224Y-127292039D01*
X144213243Y-127289716D01*
X144207935Y-127288294D01*
X144207933Y-127288293D01*
X143997402Y-127231881D01*
X143997400Y-127231881D01*
X143992087Y-127230457D01*
X143764000Y-127210502D01*
X143535913Y-127230457D01*
X143530600Y-127231881D01*
X143530598Y-127231881D01*
X143320067Y-127288293D01*
X143320065Y-127288294D01*
X143314757Y-127289716D01*
X143309776Y-127292039D01*
X143309775Y-127292039D01*
X143112238Y-127384151D01*
X143112233Y-127384154D01*
X143107251Y-127386477D01*
X143002389Y-127459902D01*
X142924211Y-127514643D01*
X142924208Y-127514645D01*
X142919700Y-127517802D01*
X142757802Y-127679700D01*
X142754645Y-127684208D01*
X142754643Y-127684211D01*
X142647819Y-127836771D01*
X142592362Y-127881099D01*
X142544606Y-127890500D01*
X141792595Y-127890500D01*
X141724474Y-127870498D01*
X141703500Y-127853595D01*
X139505405Y-125655500D01*
X139471379Y-125593188D01*
X139468500Y-125566405D01*
X139468500Y-123901394D01*
X139488502Y-123833273D01*
X139522229Y-123798181D01*
X139674789Y-123691357D01*
X139674792Y-123691355D01*
X139679300Y-123688198D01*
X139841198Y-123526300D01*
X139972523Y-123338749D01*
X139974846Y-123333767D01*
X139974849Y-123333762D01*
X139990805Y-123299543D01*
X140037722Y-123246258D01*
X140105999Y-123226797D01*
X140173959Y-123247339D01*
X140219195Y-123299543D01*
X140235151Y-123333762D01*
X140235154Y-123333767D01*
X140237477Y-123338749D01*
X140368802Y-123526300D01*
X140530700Y-123688198D01*
X140535208Y-123691355D01*
X140535211Y-123691357D01*
X140613389Y-123746098D01*
X140718251Y-123819523D01*
X140723233Y-123821846D01*
X140723238Y-123821849D01*
X140893825Y-123901394D01*
X140925757Y-123916284D01*
X140931065Y-123917706D01*
X140931067Y-123917707D01*
X141141598Y-123974119D01*
X141141600Y-123974119D01*
X141146913Y-123975543D01*
X141375000Y-123995498D01*
X141603087Y-123975543D01*
X141608400Y-123974119D01*
X141608402Y-123974119D01*
X141818933Y-123917707D01*
X141818935Y-123917706D01*
X141824243Y-123916284D01*
X141856175Y-123901394D01*
X142026762Y-123821849D01*
X142026767Y-123821846D01*
X142031749Y-123819523D01*
X142136611Y-123746098D01*
X142214789Y-123691357D01*
X142214792Y-123691355D01*
X142219300Y-123688198D01*
X142381198Y-123526300D01*
X142512523Y-123338749D01*
X142514846Y-123333767D01*
X142514849Y-123333762D01*
X142531081Y-123298951D01*
X142577998Y-123245666D01*
X142646275Y-123226205D01*
X142714235Y-123246747D01*
X142759471Y-123298951D01*
X142775586Y-123333511D01*
X142781069Y-123343007D01*
X142906028Y-123521467D01*
X142913084Y-123529875D01*
X143067125Y-123683916D01*
X143075533Y-123690972D01*
X143253993Y-123815931D01*
X143263489Y-123821414D01*
X143460947Y-123913490D01*
X143471239Y-123917236D01*
X143643503Y-123963394D01*
X143657599Y-123963058D01*
X143661000Y-123955116D01*
X143661000Y-123949967D01*
X144169000Y-123949967D01*
X144172973Y-123963498D01*
X144181522Y-123964727D01*
X144358761Y-123917236D01*
X144369053Y-123913490D01*
X144566511Y-123821414D01*
X144576007Y-123815931D01*
X144754467Y-123690972D01*
X144762875Y-123683916D01*
X144916916Y-123529875D01*
X144923972Y-123521467D01*
X145048931Y-123343007D01*
X145054414Y-123333511D01*
X145070529Y-123298951D01*
X145117446Y-123245666D01*
X145185723Y-123226205D01*
X145253683Y-123246747D01*
X145298919Y-123298951D01*
X145315151Y-123333762D01*
X145315154Y-123333767D01*
X145317477Y-123338749D01*
X145448802Y-123526300D01*
X145610700Y-123688198D01*
X145615208Y-123691355D01*
X145615211Y-123691357D01*
X145693389Y-123746098D01*
X145798251Y-123819523D01*
X145803233Y-123821846D01*
X145803238Y-123821849D01*
X145973825Y-123901394D01*
X146005757Y-123916284D01*
X146011065Y-123917706D01*
X146011067Y-123917707D01*
X146221598Y-123974119D01*
X146221600Y-123974119D01*
X146226913Y-123975543D01*
X146455000Y-123995498D01*
X146683087Y-123975543D01*
X146688400Y-123974119D01*
X146688402Y-123974119D01*
X146898933Y-123917707D01*
X146898935Y-123917706D01*
X146904243Y-123916284D01*
X146936175Y-123901394D01*
X147106762Y-123821849D01*
X147106767Y-123821846D01*
X147111749Y-123819523D01*
X147216611Y-123746098D01*
X147294789Y-123691357D01*
X147294792Y-123691355D01*
X147299300Y-123688198D01*
X147461198Y-123526300D01*
X147592523Y-123338749D01*
X147594846Y-123333767D01*
X147594849Y-123333762D01*
X147686961Y-123136225D01*
X147686961Y-123136224D01*
X147689284Y-123131243D01*
X147748543Y-122910087D01*
X147768498Y-122682000D01*
X147748543Y-122453913D01*
X147689284Y-122232757D01*
X147594966Y-122030489D01*
X147594849Y-122030238D01*
X147594846Y-122030233D01*
X147592523Y-122025251D01*
X147461198Y-121837700D01*
X147299300Y-121675802D01*
X147294792Y-121672645D01*
X147294789Y-121672643D01*
X147216611Y-121617902D01*
X147111749Y-121544477D01*
X147106767Y-121542154D01*
X147106762Y-121542151D01*
X146909225Y-121450039D01*
X146909224Y-121450039D01*
X146904243Y-121447716D01*
X146898935Y-121446294D01*
X146898933Y-121446293D01*
X146688402Y-121389881D01*
X146688400Y-121389881D01*
X146683087Y-121388457D01*
X146455000Y-121368502D01*
X146226913Y-121388457D01*
X146221600Y-121389881D01*
X146221598Y-121389881D01*
X146011067Y-121446293D01*
X146011065Y-121446294D01*
X146005757Y-121447716D01*
X146000776Y-121450039D01*
X146000775Y-121450039D01*
X145803238Y-121542151D01*
X145803233Y-121542154D01*
X145798251Y-121544477D01*
X145693389Y-121617902D01*
X145615211Y-121672643D01*
X145615208Y-121672645D01*
X145610700Y-121675802D01*
X145448802Y-121837700D01*
X145317477Y-122025251D01*
X145315154Y-122030233D01*
X145315151Y-122030238D01*
X145298919Y-122065049D01*
X145252002Y-122118334D01*
X145183725Y-122137795D01*
X145115765Y-122117253D01*
X145070529Y-122065049D01*
X145054414Y-122030489D01*
X145048931Y-122020993D01*
X144923972Y-121842533D01*
X144916916Y-121834125D01*
X144762875Y-121680084D01*
X144754467Y-121673028D01*
X144576007Y-121548069D01*
X144566511Y-121542586D01*
X144369053Y-121450510D01*
X144358761Y-121446764D01*
X144186497Y-121400606D01*
X144172401Y-121400942D01*
X144169000Y-121408884D01*
X144169000Y-123949967D01*
X143661000Y-123949967D01*
X143661000Y-121414033D01*
X143657027Y-121400502D01*
X143648478Y-121399273D01*
X143471239Y-121446764D01*
X143460947Y-121450510D01*
X143263489Y-121542586D01*
X143253993Y-121548069D01*
X143075533Y-121673028D01*
X143067125Y-121680084D01*
X142913084Y-121834125D01*
X142906028Y-121842533D01*
X142781069Y-122020993D01*
X142775586Y-122030489D01*
X142759471Y-122065049D01*
X142712554Y-122118334D01*
X142644277Y-122137795D01*
X142576317Y-122117253D01*
X142531081Y-122065049D01*
X142514849Y-122030238D01*
X142514846Y-122030233D01*
X142512523Y-122025251D01*
X142381198Y-121837700D01*
X142219300Y-121675802D01*
X142214792Y-121672645D01*
X142214789Y-121672643D01*
X142136611Y-121617902D01*
X142031749Y-121544477D01*
X142026767Y-121542154D01*
X142026762Y-121542151D01*
X141829225Y-121450039D01*
X141829224Y-121450039D01*
X141824243Y-121447716D01*
X141818935Y-121446294D01*
X141818933Y-121446293D01*
X141608402Y-121389881D01*
X141608400Y-121389881D01*
X141603087Y-121388457D01*
X141375000Y-121368502D01*
X141146913Y-121388457D01*
X141141600Y-121389881D01*
X141141598Y-121389881D01*
X140931067Y-121446293D01*
X140931065Y-121446294D01*
X140925757Y-121447716D01*
X140920776Y-121450039D01*
X140920775Y-121450039D01*
X140723238Y-121542151D01*
X140723233Y-121542154D01*
X140718251Y-121544477D01*
X140613389Y-121617902D01*
X140535211Y-121672643D01*
X140535208Y-121672645D01*
X140530700Y-121675802D01*
X140368802Y-121837700D01*
X140237477Y-122025251D01*
X140235154Y-122030233D01*
X140235151Y-122030238D01*
X140219195Y-122064457D01*
X140172278Y-122117742D01*
X140104001Y-122137203D01*
X140036041Y-122116661D01*
X139990805Y-122064457D01*
X139974849Y-122030238D01*
X139974846Y-122030233D01*
X139972523Y-122025251D01*
X139841198Y-121837700D01*
X139679300Y-121675802D01*
X139674792Y-121672645D01*
X139674789Y-121672643D01*
X139596611Y-121617902D01*
X139491749Y-121544477D01*
X139486767Y-121542154D01*
X139486762Y-121542151D01*
X139289225Y-121450039D01*
X139289224Y-121450039D01*
X139284243Y-121447716D01*
X139278935Y-121446294D01*
X139278933Y-121446293D01*
X139068402Y-121389881D01*
X139068400Y-121389881D01*
X139063087Y-121388457D01*
X138835000Y-121368502D01*
X138606913Y-121388457D01*
X138601600Y-121389881D01*
X138601598Y-121389881D01*
X138391067Y-121446293D01*
X138391065Y-121446294D01*
X138385757Y-121447716D01*
X138380776Y-121450039D01*
X138380775Y-121450039D01*
X138183238Y-121542151D01*
X138183233Y-121542154D01*
X138178251Y-121544477D01*
X138073389Y-121617902D01*
X137995211Y-121672643D01*
X137995208Y-121672645D01*
X137990700Y-121675802D01*
X137828802Y-121837700D01*
X137697477Y-122025251D01*
X137695154Y-122030233D01*
X137695151Y-122030238D01*
X137679195Y-122064457D01*
X137632278Y-122117742D01*
X137564001Y-122137203D01*
X137496041Y-122116661D01*
X137450805Y-122064457D01*
X137434849Y-122030238D01*
X137434846Y-122030233D01*
X137432523Y-122025251D01*
X137301198Y-121837700D01*
X137139300Y-121675802D01*
X137134792Y-121672645D01*
X137134789Y-121672643D01*
X137056611Y-121617902D01*
X136951749Y-121544477D01*
X136946767Y-121542154D01*
X136946762Y-121542151D01*
X136749225Y-121450039D01*
X136749224Y-121450039D01*
X136744243Y-121447716D01*
X136738935Y-121446294D01*
X136738933Y-121446293D01*
X136528402Y-121389881D01*
X136528400Y-121389881D01*
X136523087Y-121388457D01*
X136295000Y-121368502D01*
X136066913Y-121388457D01*
X136061600Y-121389881D01*
X136061598Y-121389881D01*
X135851067Y-121446293D01*
X135851065Y-121446294D01*
X135845757Y-121447716D01*
X135840776Y-121450039D01*
X135840775Y-121450039D01*
X135643238Y-121542151D01*
X135643233Y-121542154D01*
X135638251Y-121544477D01*
X135533389Y-121617902D01*
X135455211Y-121672643D01*
X135455208Y-121672645D01*
X135450700Y-121675802D01*
X135288802Y-121837700D01*
X135157477Y-122025251D01*
X135155154Y-122030233D01*
X135155151Y-122030238D01*
X135139195Y-122064457D01*
X135092278Y-122117742D01*
X135024001Y-122137203D01*
X134956041Y-122116661D01*
X134910805Y-122064457D01*
X134894849Y-122030238D01*
X134894846Y-122030233D01*
X134892523Y-122025251D01*
X134761198Y-121837700D01*
X134599300Y-121675802D01*
X134594792Y-121672645D01*
X134594789Y-121672643D01*
X134516611Y-121617902D01*
X134411749Y-121544477D01*
X134406767Y-121542154D01*
X134406762Y-121542151D01*
X134209225Y-121450039D01*
X134209224Y-121450039D01*
X134204243Y-121447716D01*
X134198935Y-121446294D01*
X134198933Y-121446293D01*
X133988402Y-121389881D01*
X133988400Y-121389881D01*
X133983087Y-121388457D01*
X133755000Y-121368502D01*
X133526913Y-121388457D01*
X133521600Y-121389881D01*
X133521598Y-121389881D01*
X133311067Y-121446293D01*
X133311065Y-121446294D01*
X133305757Y-121447716D01*
X133300776Y-121450039D01*
X133300775Y-121450039D01*
X133103238Y-121542151D01*
X133103233Y-121542154D01*
X133098251Y-121544477D01*
X132993389Y-121617902D01*
X132915211Y-121672643D01*
X132915208Y-121672645D01*
X132910700Y-121675802D01*
X132748802Y-121837700D01*
X132617477Y-122025251D01*
X132615154Y-122030233D01*
X132615151Y-122030238D01*
X132599195Y-122064457D01*
X132552278Y-122117742D01*
X132484001Y-122137203D01*
X132416041Y-122116661D01*
X132370805Y-122064457D01*
X132354849Y-122030238D01*
X132354846Y-122030233D01*
X132352523Y-122025251D01*
X132221198Y-121837700D01*
X132059300Y-121675802D01*
X132054792Y-121672645D01*
X132054789Y-121672643D01*
X131976611Y-121617902D01*
X131871749Y-121544477D01*
X131866767Y-121542154D01*
X131866762Y-121542151D01*
X131669225Y-121450039D01*
X131669224Y-121450039D01*
X131664243Y-121447716D01*
X131658935Y-121446294D01*
X131658933Y-121446293D01*
X131448402Y-121389881D01*
X131448400Y-121389881D01*
X131443087Y-121388457D01*
X131215000Y-121368502D01*
X130986913Y-121388457D01*
X130981600Y-121389881D01*
X130981598Y-121389881D01*
X130771067Y-121446293D01*
X130771065Y-121446294D01*
X130765757Y-121447716D01*
X130760776Y-121450039D01*
X130760775Y-121450039D01*
X130563238Y-121542151D01*
X130563233Y-121542154D01*
X130558251Y-121544477D01*
X130453389Y-121617902D01*
X130375211Y-121672643D01*
X130375208Y-121672645D01*
X130370700Y-121675802D01*
X130208802Y-121837700D01*
X130077477Y-122025251D01*
X130075154Y-122030233D01*
X130075151Y-122030238D01*
X130059195Y-122064457D01*
X130012278Y-122117742D01*
X129944001Y-122137203D01*
X129876041Y-122116661D01*
X129830805Y-122064457D01*
X129814849Y-122030238D01*
X129814846Y-122030233D01*
X129812523Y-122025251D01*
X129681198Y-121837700D01*
X129519300Y-121675802D01*
X129514792Y-121672645D01*
X129514789Y-121672643D01*
X129436611Y-121617902D01*
X129331749Y-121544477D01*
X129326767Y-121542154D01*
X129326762Y-121542151D01*
X129129225Y-121450039D01*
X129129224Y-121450039D01*
X129124243Y-121447716D01*
X129118935Y-121446294D01*
X129118933Y-121446293D01*
X128908402Y-121389881D01*
X128908400Y-121389881D01*
X128903087Y-121388457D01*
X128675000Y-121368502D01*
X128446913Y-121388457D01*
X128441600Y-121389881D01*
X128441598Y-121389881D01*
X128231067Y-121446293D01*
X128231065Y-121446294D01*
X128225757Y-121447716D01*
X128220776Y-121450039D01*
X128220775Y-121450039D01*
X128023238Y-121542151D01*
X128023233Y-121542154D01*
X128018251Y-121544477D01*
X127913389Y-121617902D01*
X127835211Y-121672643D01*
X127835208Y-121672645D01*
X127830700Y-121675802D01*
X127668802Y-121837700D01*
X127537477Y-122025251D01*
X127535154Y-122030233D01*
X127535151Y-122030238D01*
X127519195Y-122064457D01*
X127472278Y-122117742D01*
X127404001Y-122137203D01*
X127336041Y-122116661D01*
X127290805Y-122064457D01*
X127274849Y-122030238D01*
X127274846Y-122030233D01*
X127272523Y-122025251D01*
X127141198Y-121837700D01*
X126979300Y-121675802D01*
X126974792Y-121672645D01*
X126974789Y-121672643D01*
X126896611Y-121617902D01*
X126791749Y-121544477D01*
X126786767Y-121542154D01*
X126786762Y-121542151D01*
X126589225Y-121450039D01*
X126589224Y-121450039D01*
X126584243Y-121447716D01*
X126578935Y-121446294D01*
X126578933Y-121446293D01*
X126368402Y-121389881D01*
X126368400Y-121389881D01*
X126363087Y-121388457D01*
X126135000Y-121368502D01*
X125906913Y-121388457D01*
X125901600Y-121389881D01*
X125901598Y-121389881D01*
X125691067Y-121446293D01*
X125691065Y-121446294D01*
X125685757Y-121447716D01*
X125680776Y-121450039D01*
X125680775Y-121450039D01*
X125483238Y-121542151D01*
X125483233Y-121542154D01*
X125478251Y-121544477D01*
X125373389Y-121617902D01*
X125295211Y-121672643D01*
X125295208Y-121672645D01*
X125290700Y-121675802D01*
X125128802Y-121837700D01*
X124997477Y-122025251D01*
X124995154Y-122030233D01*
X124995151Y-122030238D01*
X124979195Y-122064457D01*
X124932278Y-122117742D01*
X124864001Y-122137203D01*
X124796041Y-122116661D01*
X124750805Y-122064457D01*
X124734849Y-122030238D01*
X124734846Y-122030233D01*
X124732523Y-122025251D01*
X124601198Y-121837700D01*
X124439300Y-121675802D01*
X124434792Y-121672645D01*
X124434789Y-121672643D01*
X124356611Y-121617902D01*
X124251749Y-121544477D01*
X124246767Y-121542154D01*
X124246762Y-121542151D01*
X124049225Y-121450039D01*
X124049224Y-121450039D01*
X124044243Y-121447716D01*
X124038935Y-121446294D01*
X124038933Y-121446293D01*
X123828402Y-121389881D01*
X123828400Y-121389881D01*
X123823087Y-121388457D01*
X123595000Y-121368502D01*
X123366913Y-121388457D01*
X123361600Y-121389881D01*
X123361598Y-121389881D01*
X123151067Y-121446293D01*
X123151065Y-121446294D01*
X123145757Y-121447716D01*
X123140776Y-121450039D01*
X123140775Y-121450039D01*
X122943238Y-121542151D01*
X122943233Y-121542154D01*
X122938251Y-121544477D01*
X122833389Y-121617902D01*
X122755211Y-121672643D01*
X122755208Y-121672645D01*
X122750700Y-121675802D01*
X122588802Y-121837700D01*
X122457477Y-122025251D01*
X122455154Y-122030233D01*
X122455151Y-122030238D01*
X122439195Y-122064457D01*
X122392278Y-122117742D01*
X122324001Y-122137203D01*
X122256041Y-122116661D01*
X122210805Y-122064457D01*
X122194849Y-122030238D01*
X122194846Y-122030233D01*
X122192523Y-122025251D01*
X122061198Y-121837700D01*
X121899300Y-121675802D01*
X121894792Y-121672645D01*
X121894789Y-121672643D01*
X121816611Y-121617902D01*
X121711749Y-121544477D01*
X121706767Y-121542154D01*
X121706762Y-121542151D01*
X121509225Y-121450039D01*
X121509224Y-121450039D01*
X121504243Y-121447716D01*
X121498935Y-121446294D01*
X121498933Y-121446293D01*
X121288402Y-121389881D01*
X121288400Y-121389881D01*
X121283087Y-121388457D01*
X121055000Y-121368502D01*
X120826913Y-121388457D01*
X120821600Y-121389881D01*
X120821598Y-121389881D01*
X120611067Y-121446293D01*
X120611065Y-121446294D01*
X120605757Y-121447716D01*
X120600776Y-121450039D01*
X120600775Y-121450039D01*
X120403238Y-121542151D01*
X120403233Y-121542154D01*
X120398251Y-121544477D01*
X120293389Y-121617902D01*
X120215211Y-121672643D01*
X120215208Y-121672645D01*
X120210700Y-121675802D01*
X120048802Y-121837700D01*
X119917477Y-122025251D01*
X119915154Y-122030233D01*
X119915151Y-122030238D01*
X119899195Y-122064457D01*
X119852278Y-122117742D01*
X119784001Y-122137203D01*
X119716041Y-122116661D01*
X119670805Y-122064457D01*
X119654849Y-122030238D01*
X119654846Y-122030233D01*
X119652523Y-122025251D01*
X119521198Y-121837700D01*
X119359300Y-121675802D01*
X119354792Y-121672645D01*
X119354789Y-121672643D01*
X119276611Y-121617902D01*
X119171749Y-121544477D01*
X119166767Y-121542154D01*
X119166762Y-121542151D01*
X118969225Y-121450039D01*
X118969224Y-121450039D01*
X118964243Y-121447716D01*
X118958935Y-121446294D01*
X118958933Y-121446293D01*
X118748402Y-121389881D01*
X118748400Y-121389881D01*
X118743087Y-121388457D01*
X118515000Y-121368502D01*
X118286913Y-121388457D01*
X118281600Y-121389881D01*
X118281598Y-121389881D01*
X118071067Y-121446293D01*
X118071065Y-121446294D01*
X118065757Y-121447716D01*
X118060776Y-121450039D01*
X118060775Y-121450039D01*
X117863238Y-121542151D01*
X117863233Y-121542154D01*
X117858251Y-121544477D01*
X117753389Y-121617902D01*
X117675211Y-121672643D01*
X117675208Y-121672645D01*
X117670700Y-121675802D01*
X117508802Y-121837700D01*
X117377477Y-122025251D01*
X117375154Y-122030233D01*
X117375151Y-122030238D01*
X117359195Y-122064457D01*
X117312278Y-122117742D01*
X117244001Y-122137203D01*
X117176041Y-122116661D01*
X117130805Y-122064457D01*
X117114849Y-122030238D01*
X117114846Y-122030233D01*
X117112523Y-122025251D01*
X116981198Y-121837700D01*
X116819300Y-121675802D01*
X116814792Y-121672645D01*
X116814789Y-121672643D01*
X116736611Y-121617902D01*
X116631749Y-121544477D01*
X116626767Y-121542154D01*
X116626762Y-121542151D01*
X116429225Y-121450039D01*
X116429224Y-121450039D01*
X116424243Y-121447716D01*
X116418935Y-121446294D01*
X116418933Y-121446293D01*
X116208402Y-121389881D01*
X116208400Y-121389881D01*
X116203087Y-121388457D01*
X115975000Y-121368502D01*
X115746913Y-121388457D01*
X115741600Y-121389881D01*
X115741598Y-121389881D01*
X115531067Y-121446293D01*
X115531065Y-121446294D01*
X115525757Y-121447716D01*
X115520776Y-121450039D01*
X115520775Y-121450039D01*
X115323238Y-121542151D01*
X115323233Y-121542154D01*
X115318251Y-121544477D01*
X115213389Y-121617902D01*
X115135211Y-121672643D01*
X115135208Y-121672645D01*
X115130700Y-121675802D01*
X114968802Y-121837700D01*
X114837477Y-122025251D01*
X114835154Y-122030233D01*
X114835151Y-122030238D01*
X114819195Y-122064457D01*
X114772278Y-122117742D01*
X114704001Y-122137203D01*
X114636041Y-122116661D01*
X114590805Y-122064457D01*
X114574849Y-122030238D01*
X114574846Y-122030233D01*
X114572523Y-122025251D01*
X114441198Y-121837700D01*
X114279300Y-121675802D01*
X114274792Y-121672645D01*
X114274789Y-121672643D01*
X114196611Y-121617902D01*
X114091749Y-121544477D01*
X114086767Y-121542154D01*
X114086762Y-121542151D01*
X113889225Y-121450039D01*
X113889224Y-121450039D01*
X113884243Y-121447716D01*
X113878935Y-121446294D01*
X113878933Y-121446293D01*
X113668402Y-121389881D01*
X113668400Y-121389881D01*
X113663087Y-121388457D01*
X113435000Y-121368502D01*
X113206913Y-121388457D01*
X113201600Y-121389881D01*
X113201598Y-121389881D01*
X112991067Y-121446293D01*
X112991065Y-121446294D01*
X112985757Y-121447716D01*
X112980776Y-121450039D01*
X112980775Y-121450039D01*
X112783238Y-121542151D01*
X112783233Y-121542154D01*
X112778251Y-121544477D01*
X112673389Y-121617902D01*
X112595211Y-121672643D01*
X112595208Y-121672645D01*
X112590700Y-121675802D01*
X112428802Y-121837700D01*
X112297477Y-122025251D01*
X112295154Y-122030233D01*
X112295151Y-122030238D01*
X112279195Y-122064457D01*
X112232278Y-122117742D01*
X112164001Y-122137203D01*
X112096041Y-122116661D01*
X112050805Y-122064457D01*
X112034849Y-122030238D01*
X112034846Y-122030233D01*
X112032523Y-122025251D01*
X111901198Y-121837700D01*
X111739300Y-121675802D01*
X111734792Y-121672645D01*
X111734789Y-121672643D01*
X111656611Y-121617902D01*
X111551749Y-121544477D01*
X111546767Y-121542154D01*
X111546762Y-121542151D01*
X111349225Y-121450039D01*
X111349224Y-121450039D01*
X111344243Y-121447716D01*
X111338935Y-121446294D01*
X111338933Y-121446293D01*
X111128402Y-121389881D01*
X111128400Y-121389881D01*
X111123087Y-121388457D01*
X110895000Y-121368502D01*
X110666913Y-121388457D01*
X110661600Y-121389881D01*
X110661598Y-121389881D01*
X110451067Y-121446293D01*
X110451065Y-121446294D01*
X110445757Y-121447716D01*
X110440776Y-121450039D01*
X110440775Y-121450039D01*
X110243238Y-121542151D01*
X110243233Y-121542154D01*
X110238251Y-121544477D01*
X110133389Y-121617902D01*
X110055211Y-121672643D01*
X110055208Y-121672645D01*
X110050700Y-121675802D01*
X109888802Y-121837700D01*
X109757477Y-122025251D01*
X109755154Y-122030233D01*
X109755151Y-122030238D01*
X109755034Y-122030489D01*
X109660716Y-122232757D01*
X109601457Y-122453913D01*
X109581502Y-122682000D01*
X96520500Y-122682000D01*
X96520500Y-102598318D01*
X98317721Y-102598318D01*
X98326548Y-102609936D01*
X98549281Y-102771761D01*
X98555961Y-102776001D01*
X98825572Y-102924221D01*
X98832707Y-102927578D01*
X99118770Y-103040839D01*
X99126296Y-103043284D01*
X99424279Y-103119793D01*
X99432050Y-103121276D01*
X99737278Y-103159834D01*
X99745169Y-103160331D01*
X100052831Y-103160331D01*
X100060722Y-103159834D01*
X100365950Y-103121276D01*
X100373721Y-103119793D01*
X100671704Y-103043284D01*
X100679230Y-103040839D01*
X100965293Y-102927578D01*
X100972428Y-102924221D01*
X101242039Y-102776001D01*
X101248719Y-102771761D01*
X101471823Y-102609667D01*
X101480246Y-102598744D01*
X101473342Y-102585883D01*
X99911812Y-101024353D01*
X99897868Y-101016739D01*
X99896035Y-101016870D01*
X99889420Y-101021121D01*
X98324334Y-102586207D01*
X98317721Y-102598318D01*
X96520500Y-102598318D01*
X96520500Y-100656289D01*
X97386290Y-100656289D01*
X97405607Y-100963325D01*
X97406600Y-100971186D01*
X97464246Y-101273377D01*
X97466217Y-101281054D01*
X97561284Y-101573640D01*
X97564199Y-101581003D01*
X97695189Y-101859372D01*
X97699001Y-101866305D01*
X97863851Y-102126067D01*
X97868495Y-102132460D01*
X97943497Y-102223121D01*
X97956014Y-102231576D01*
X97966752Y-102225369D01*
X99526978Y-100665143D01*
X99533356Y-100653463D01*
X100263408Y-100653463D01*
X100263539Y-100655296D01*
X100267790Y-100661911D01*
X101830145Y-102224266D01*
X101843407Y-102231508D01*
X101853512Y-102224319D01*
X101929505Y-102132460D01*
X101934149Y-102126067D01*
X101968251Y-102072331D01*
X105515502Y-102072331D01*
X105535457Y-102300418D01*
X105594716Y-102521574D01*
X105597039Y-102526555D01*
X105597039Y-102526556D01*
X105689151Y-102724093D01*
X105689154Y-102724098D01*
X105691477Y-102729080D01*
X105822802Y-102916631D01*
X105984700Y-103078529D01*
X105989208Y-103081686D01*
X105989211Y-103081688D01*
X106030542Y-103110628D01*
X106172251Y-103209854D01*
X106177233Y-103212177D01*
X106177238Y-103212180D01*
X106337499Y-103286910D01*
X106379757Y-103306615D01*
X106385065Y-103308037D01*
X106385067Y-103308038D01*
X106595598Y-103364450D01*
X106595600Y-103364450D01*
X106600913Y-103365874D01*
X106829000Y-103385829D01*
X107057087Y-103365874D01*
X107062400Y-103364450D01*
X107062402Y-103364450D01*
X107272933Y-103308038D01*
X107272935Y-103308037D01*
X107278243Y-103306615D01*
X107320501Y-103286910D01*
X107480762Y-103212180D01*
X107480767Y-103212177D01*
X107485749Y-103209854D01*
X107627458Y-103110628D01*
X107668789Y-103081688D01*
X107668792Y-103081686D01*
X107673300Y-103078529D01*
X107835198Y-102916631D01*
X107966523Y-102729080D01*
X107968846Y-102724098D01*
X107968849Y-102724093D01*
X108060961Y-102526556D01*
X108060961Y-102526555D01*
X108063284Y-102521574D01*
X108092293Y-102413312D01*
X108129245Y-102352689D01*
X108193106Y-102321668D01*
X108263600Y-102330096D01*
X108318347Y-102375299D01*
X108335707Y-102413312D01*
X108364716Y-102521574D01*
X108367039Y-102526555D01*
X108367039Y-102526556D01*
X108459151Y-102724093D01*
X108459154Y-102724098D01*
X108461477Y-102729080D01*
X108592802Y-102916631D01*
X108754700Y-103078529D01*
X108759208Y-103081686D01*
X108759211Y-103081688D01*
X108800542Y-103110628D01*
X108942251Y-103209854D01*
X108947233Y-103212177D01*
X108947238Y-103212180D01*
X109107499Y-103286910D01*
X109149757Y-103306615D01*
X109155065Y-103308037D01*
X109155067Y-103308038D01*
X109365598Y-103364450D01*
X109365600Y-103364450D01*
X109370913Y-103365874D01*
X109599000Y-103385829D01*
X109827087Y-103365874D01*
X109832400Y-103364450D01*
X109832402Y-103364450D01*
X110042933Y-103308038D01*
X110042935Y-103308037D01*
X110048243Y-103306615D01*
X110090501Y-103286910D01*
X110250762Y-103212180D01*
X110250767Y-103212177D01*
X110255749Y-103209854D01*
X110397458Y-103110628D01*
X110438789Y-103081688D01*
X110438792Y-103081686D01*
X110443300Y-103078529D01*
X110605198Y-102916631D01*
X110736523Y-102729080D01*
X110738846Y-102724098D01*
X110738849Y-102724093D01*
X110830961Y-102526556D01*
X110830961Y-102526555D01*
X110833284Y-102521574D01*
X110862293Y-102413312D01*
X110899245Y-102352689D01*
X110963106Y-102321668D01*
X111033600Y-102330096D01*
X111088347Y-102375299D01*
X111105707Y-102413312D01*
X111134716Y-102521574D01*
X111137039Y-102526555D01*
X111137039Y-102526556D01*
X111229151Y-102724093D01*
X111229154Y-102724098D01*
X111231477Y-102729080D01*
X111362802Y-102916631D01*
X111524700Y-103078529D01*
X111529208Y-103081686D01*
X111529211Y-103081688D01*
X111570542Y-103110628D01*
X111712251Y-103209854D01*
X111717233Y-103212177D01*
X111717238Y-103212180D01*
X111877499Y-103286910D01*
X111919757Y-103306615D01*
X111925065Y-103308037D01*
X111925067Y-103308038D01*
X112135598Y-103364450D01*
X112135600Y-103364450D01*
X112140913Y-103365874D01*
X112369000Y-103385829D01*
X112597087Y-103365874D01*
X112701890Y-103337792D01*
X112772865Y-103339482D01*
X112831661Y-103379276D01*
X112859609Y-103444540D01*
X112860500Y-103459499D01*
X112860500Y-104528406D01*
X112840498Y-104596527D01*
X112823595Y-104617501D01*
X111308248Y-106132848D01*
X111245936Y-106166874D01*
X111186541Y-106165459D01*
X111128409Y-106149882D01*
X111128398Y-106149880D01*
X111123087Y-106148457D01*
X110895000Y-106128502D01*
X110666913Y-106148457D01*
X110661600Y-106149881D01*
X110661598Y-106149881D01*
X110451067Y-106206293D01*
X110451065Y-106206294D01*
X110445757Y-106207716D01*
X110440776Y-106210039D01*
X110440775Y-106210039D01*
X110243238Y-106302151D01*
X110243233Y-106302154D01*
X110238251Y-106304477D01*
X110133389Y-106377902D01*
X110055211Y-106432643D01*
X110055208Y-106432645D01*
X110050700Y-106435802D01*
X109888802Y-106597700D01*
X109757477Y-106785251D01*
X109755154Y-106790233D01*
X109755151Y-106790238D01*
X109755034Y-106790489D01*
X109660716Y-106992757D01*
X109601457Y-107213913D01*
X109581502Y-107442000D01*
X109601457Y-107670087D01*
X109660716Y-107891243D01*
X109663039Y-107896224D01*
X109663039Y-107896225D01*
X109755151Y-108093762D01*
X109755154Y-108093767D01*
X109757477Y-108098749D01*
X109888802Y-108286300D01*
X110050700Y-108448198D01*
X110055208Y-108451355D01*
X110055211Y-108451357D01*
X110096542Y-108480297D01*
X110238251Y-108579523D01*
X110243233Y-108581846D01*
X110243238Y-108581849D01*
X110439765Y-108673490D01*
X110445757Y-108676284D01*
X110451065Y-108677706D01*
X110451067Y-108677707D01*
X110661598Y-108734119D01*
X110661600Y-108734119D01*
X110666913Y-108735543D01*
X110895000Y-108755498D01*
X111123087Y-108735543D01*
X111128400Y-108734119D01*
X111128402Y-108734119D01*
X111338933Y-108677707D01*
X111338935Y-108677706D01*
X111344243Y-108676284D01*
X111350235Y-108673490D01*
X111546762Y-108581849D01*
X111546767Y-108581846D01*
X111551749Y-108579523D01*
X111693458Y-108480297D01*
X111734789Y-108451357D01*
X111734792Y-108451355D01*
X111739300Y-108448198D01*
X111901198Y-108286300D01*
X112032523Y-108098749D01*
X112034846Y-108093767D01*
X112034849Y-108093762D01*
X112050805Y-108059543D01*
X112097722Y-108006258D01*
X112165999Y-107986797D01*
X112233959Y-108007339D01*
X112279195Y-108059543D01*
X112295151Y-108093762D01*
X112295154Y-108093767D01*
X112297477Y-108098749D01*
X112428802Y-108286300D01*
X112590700Y-108448198D01*
X112595208Y-108451355D01*
X112595211Y-108451357D01*
X112636542Y-108480297D01*
X112778251Y-108579523D01*
X112783233Y-108581846D01*
X112783238Y-108581849D01*
X112979765Y-108673490D01*
X112985757Y-108676284D01*
X112991065Y-108677706D01*
X112991067Y-108677707D01*
X113201598Y-108734119D01*
X113201600Y-108734119D01*
X113206913Y-108735543D01*
X113435000Y-108755498D01*
X113663087Y-108735543D01*
X113668400Y-108734119D01*
X113668402Y-108734119D01*
X113878933Y-108677707D01*
X113878935Y-108677706D01*
X113884243Y-108676284D01*
X113890235Y-108673490D01*
X114086762Y-108581849D01*
X114086767Y-108581846D01*
X114091749Y-108579523D01*
X114233458Y-108480297D01*
X114274789Y-108451357D01*
X114274792Y-108451355D01*
X114279300Y-108448198D01*
X114441198Y-108286300D01*
X114572523Y-108098749D01*
X114574846Y-108093767D01*
X114574849Y-108093762D01*
X114590805Y-108059543D01*
X114637722Y-108006258D01*
X114705999Y-107986797D01*
X114773959Y-108007339D01*
X114819195Y-108059543D01*
X114835151Y-108093762D01*
X114835154Y-108093767D01*
X114837477Y-108098749D01*
X114968802Y-108286300D01*
X115130700Y-108448198D01*
X115135208Y-108451355D01*
X115135211Y-108451357D01*
X115176542Y-108480297D01*
X115318251Y-108579523D01*
X115323233Y-108581846D01*
X115323238Y-108581849D01*
X115519765Y-108673490D01*
X115525757Y-108676284D01*
X115531065Y-108677706D01*
X115531067Y-108677707D01*
X115741598Y-108734119D01*
X115741600Y-108734119D01*
X115746913Y-108735543D01*
X115975000Y-108755498D01*
X116203087Y-108735543D01*
X116208400Y-108734119D01*
X116208402Y-108734119D01*
X116418933Y-108677707D01*
X116418935Y-108677706D01*
X116424243Y-108676284D01*
X116430235Y-108673490D01*
X116626762Y-108581849D01*
X116626767Y-108581846D01*
X116631749Y-108579523D01*
X116773458Y-108480297D01*
X116814789Y-108451357D01*
X116814792Y-108451355D01*
X116819300Y-108448198D01*
X116981198Y-108286300D01*
X117112523Y-108098749D01*
X117114846Y-108093767D01*
X117114849Y-108093762D01*
X117130805Y-108059543D01*
X117177722Y-108006258D01*
X117245999Y-107986797D01*
X117313959Y-108007339D01*
X117359195Y-108059543D01*
X117375151Y-108093762D01*
X117375154Y-108093767D01*
X117377477Y-108098749D01*
X117508802Y-108286300D01*
X117670700Y-108448198D01*
X117675208Y-108451355D01*
X117675211Y-108451357D01*
X117716542Y-108480297D01*
X117858251Y-108579523D01*
X117863233Y-108581846D01*
X117863238Y-108581849D01*
X118059765Y-108673490D01*
X118065757Y-108676284D01*
X118071065Y-108677706D01*
X118071067Y-108677707D01*
X118281598Y-108734119D01*
X118281600Y-108734119D01*
X118286913Y-108735543D01*
X118515000Y-108755498D01*
X118743087Y-108735543D01*
X118748400Y-108734119D01*
X118748402Y-108734119D01*
X118958933Y-108677707D01*
X118958935Y-108677706D01*
X118964243Y-108676284D01*
X118970235Y-108673490D01*
X119166762Y-108581849D01*
X119166767Y-108581846D01*
X119171749Y-108579523D01*
X119313458Y-108480297D01*
X119354789Y-108451357D01*
X119354792Y-108451355D01*
X119359300Y-108448198D01*
X119521198Y-108286300D01*
X119652523Y-108098749D01*
X119654846Y-108093767D01*
X119654849Y-108093762D01*
X119670805Y-108059543D01*
X119717722Y-108006258D01*
X119785999Y-107986797D01*
X119853959Y-108007339D01*
X119899195Y-108059543D01*
X119915151Y-108093762D01*
X119915154Y-108093767D01*
X119917477Y-108098749D01*
X120048802Y-108286300D01*
X120210700Y-108448198D01*
X120215208Y-108451355D01*
X120215211Y-108451357D01*
X120256542Y-108480297D01*
X120398251Y-108579523D01*
X120403233Y-108581846D01*
X120403238Y-108581849D01*
X120599765Y-108673490D01*
X120605757Y-108676284D01*
X120611065Y-108677706D01*
X120611067Y-108677707D01*
X120821598Y-108734119D01*
X120821600Y-108734119D01*
X120826913Y-108735543D01*
X121055000Y-108755498D01*
X121283087Y-108735543D01*
X121288400Y-108734119D01*
X121288402Y-108734119D01*
X121498933Y-108677707D01*
X121498935Y-108677706D01*
X121504243Y-108676284D01*
X121510235Y-108673490D01*
X121706762Y-108581849D01*
X121706767Y-108581846D01*
X121711749Y-108579523D01*
X121853458Y-108480297D01*
X121894789Y-108451357D01*
X121894792Y-108451355D01*
X121899300Y-108448198D01*
X122061198Y-108286300D01*
X122192523Y-108098749D01*
X122194846Y-108093767D01*
X122194849Y-108093762D01*
X122210805Y-108059543D01*
X122257722Y-108006258D01*
X122325999Y-107986797D01*
X122393959Y-108007339D01*
X122439195Y-108059543D01*
X122455151Y-108093762D01*
X122455154Y-108093767D01*
X122457477Y-108098749D01*
X122588802Y-108286300D01*
X122750700Y-108448198D01*
X122755208Y-108451355D01*
X122755211Y-108451357D01*
X122796542Y-108480297D01*
X122938251Y-108579523D01*
X122943233Y-108581846D01*
X122943238Y-108581849D01*
X123139765Y-108673490D01*
X123145757Y-108676284D01*
X123151065Y-108677706D01*
X123151067Y-108677707D01*
X123361598Y-108734119D01*
X123361600Y-108734119D01*
X123366913Y-108735543D01*
X123595000Y-108755498D01*
X123823087Y-108735543D01*
X123828400Y-108734119D01*
X123828402Y-108734119D01*
X124038933Y-108677707D01*
X124038935Y-108677706D01*
X124044243Y-108676284D01*
X124050235Y-108673490D01*
X124246762Y-108581849D01*
X124246767Y-108581846D01*
X124251749Y-108579523D01*
X124393458Y-108480297D01*
X124434789Y-108451357D01*
X124434792Y-108451355D01*
X124439300Y-108448198D01*
X124601198Y-108286300D01*
X124732523Y-108098749D01*
X124734846Y-108093767D01*
X124734849Y-108093762D01*
X124750805Y-108059543D01*
X124797722Y-108006258D01*
X124865999Y-107986797D01*
X124933959Y-108007339D01*
X124979195Y-108059543D01*
X124995151Y-108093762D01*
X124995154Y-108093767D01*
X124997477Y-108098749D01*
X125128802Y-108286300D01*
X125290700Y-108448198D01*
X125295208Y-108451355D01*
X125295211Y-108451357D01*
X125336542Y-108480297D01*
X125478251Y-108579523D01*
X125483233Y-108581846D01*
X125483238Y-108581849D01*
X125679765Y-108673490D01*
X125685757Y-108676284D01*
X125691065Y-108677706D01*
X125691067Y-108677707D01*
X125901598Y-108734119D01*
X125901600Y-108734119D01*
X125906913Y-108735543D01*
X126135000Y-108755498D01*
X126363087Y-108735543D01*
X126368400Y-108734119D01*
X126368402Y-108734119D01*
X126578933Y-108677707D01*
X126578935Y-108677706D01*
X126584243Y-108676284D01*
X126590235Y-108673490D01*
X126786762Y-108581849D01*
X126786767Y-108581846D01*
X126791749Y-108579523D01*
X126933458Y-108480297D01*
X126974789Y-108451357D01*
X126974792Y-108451355D01*
X126979300Y-108448198D01*
X127141198Y-108286300D01*
X127272523Y-108098749D01*
X127274846Y-108093767D01*
X127274849Y-108093762D01*
X127290805Y-108059543D01*
X127337722Y-108006258D01*
X127405999Y-107986797D01*
X127473959Y-108007339D01*
X127519195Y-108059543D01*
X127535151Y-108093762D01*
X127535154Y-108093767D01*
X127537477Y-108098749D01*
X127668802Y-108286300D01*
X127830700Y-108448198D01*
X127835208Y-108451355D01*
X127835211Y-108451357D01*
X127876542Y-108480297D01*
X128018251Y-108579523D01*
X128023233Y-108581846D01*
X128023238Y-108581849D01*
X128219765Y-108673490D01*
X128225757Y-108676284D01*
X128231065Y-108677706D01*
X128231067Y-108677707D01*
X128441598Y-108734119D01*
X128441600Y-108734119D01*
X128446913Y-108735543D01*
X128675000Y-108755498D01*
X128903087Y-108735543D01*
X128908400Y-108734119D01*
X128908402Y-108734119D01*
X129118933Y-108677707D01*
X129118935Y-108677706D01*
X129124243Y-108676284D01*
X129130235Y-108673490D01*
X129326762Y-108581849D01*
X129326767Y-108581846D01*
X129331749Y-108579523D01*
X129473458Y-108480297D01*
X129514789Y-108451357D01*
X129514792Y-108451355D01*
X129519300Y-108448198D01*
X129681198Y-108286300D01*
X129812523Y-108098749D01*
X129814846Y-108093767D01*
X129814849Y-108093762D01*
X129830805Y-108059543D01*
X129877722Y-108006258D01*
X129945999Y-107986797D01*
X130013959Y-108007339D01*
X130059195Y-108059543D01*
X130075151Y-108093762D01*
X130075154Y-108093767D01*
X130077477Y-108098749D01*
X130208802Y-108286300D01*
X130370700Y-108448198D01*
X130375208Y-108451355D01*
X130375211Y-108451357D01*
X130416542Y-108480297D01*
X130558251Y-108579523D01*
X130563233Y-108581846D01*
X130563238Y-108581849D01*
X130759765Y-108673490D01*
X130765757Y-108676284D01*
X130771065Y-108677706D01*
X130771067Y-108677707D01*
X130981598Y-108734119D01*
X130981600Y-108734119D01*
X130986913Y-108735543D01*
X131215000Y-108755498D01*
X131443087Y-108735543D01*
X131448400Y-108734119D01*
X131448402Y-108734119D01*
X131658933Y-108677707D01*
X131658935Y-108677706D01*
X131664243Y-108676284D01*
X131670235Y-108673490D01*
X131866762Y-108581849D01*
X131866767Y-108581846D01*
X131871749Y-108579523D01*
X132013458Y-108480297D01*
X132054789Y-108451357D01*
X132054792Y-108451355D01*
X132059300Y-108448198D01*
X132221198Y-108286300D01*
X132352523Y-108098749D01*
X132354846Y-108093767D01*
X132354849Y-108093762D01*
X132370805Y-108059543D01*
X132417722Y-108006258D01*
X132485999Y-107986797D01*
X132553959Y-108007339D01*
X132599195Y-108059543D01*
X132615151Y-108093762D01*
X132615154Y-108093767D01*
X132617477Y-108098749D01*
X132748802Y-108286300D01*
X132910700Y-108448198D01*
X132915208Y-108451355D01*
X132915211Y-108451357D01*
X132956542Y-108480297D01*
X133098251Y-108579523D01*
X133103233Y-108581846D01*
X133103238Y-108581849D01*
X133299765Y-108673490D01*
X133305757Y-108676284D01*
X133311065Y-108677706D01*
X133311067Y-108677707D01*
X133521598Y-108734119D01*
X133521600Y-108734119D01*
X133526913Y-108735543D01*
X133755000Y-108755498D01*
X133983087Y-108735543D01*
X133988400Y-108734119D01*
X133988402Y-108734119D01*
X134198933Y-108677707D01*
X134198935Y-108677706D01*
X134204243Y-108676284D01*
X134210235Y-108673490D01*
X134406762Y-108581849D01*
X134406767Y-108581846D01*
X134411749Y-108579523D01*
X134553458Y-108480297D01*
X134594789Y-108451357D01*
X134594792Y-108451355D01*
X134599300Y-108448198D01*
X134761198Y-108286300D01*
X134892523Y-108098749D01*
X134894846Y-108093767D01*
X134894849Y-108093762D01*
X134910805Y-108059543D01*
X134957722Y-108006258D01*
X135025999Y-107986797D01*
X135093959Y-108007339D01*
X135139195Y-108059543D01*
X135155151Y-108093762D01*
X135155154Y-108093767D01*
X135157477Y-108098749D01*
X135288802Y-108286300D01*
X135450700Y-108448198D01*
X135455208Y-108451355D01*
X135455211Y-108451357D01*
X135496542Y-108480297D01*
X135638251Y-108579523D01*
X135643233Y-108581846D01*
X135643238Y-108581849D01*
X135839765Y-108673490D01*
X135845757Y-108676284D01*
X135851065Y-108677706D01*
X135851067Y-108677707D01*
X136061598Y-108734119D01*
X136061600Y-108734119D01*
X136066913Y-108735543D01*
X136295000Y-108755498D01*
X136523087Y-108735543D01*
X136528400Y-108734119D01*
X136528402Y-108734119D01*
X136738933Y-108677707D01*
X136738935Y-108677706D01*
X136744243Y-108676284D01*
X136750235Y-108673490D01*
X136946762Y-108581849D01*
X136946767Y-108581846D01*
X136951749Y-108579523D01*
X137093458Y-108480297D01*
X137134789Y-108451357D01*
X137134792Y-108451355D01*
X137139300Y-108448198D01*
X137301198Y-108286300D01*
X137432523Y-108098749D01*
X137434846Y-108093767D01*
X137434849Y-108093762D01*
X137451081Y-108058951D01*
X137497998Y-108005666D01*
X137566275Y-107986205D01*
X137634235Y-108006747D01*
X137679471Y-108058951D01*
X137695586Y-108093511D01*
X137701069Y-108103007D01*
X137826028Y-108281467D01*
X137833084Y-108289875D01*
X137987125Y-108443916D01*
X137995533Y-108450972D01*
X138173993Y-108575931D01*
X138183489Y-108581414D01*
X138380947Y-108673490D01*
X138391239Y-108677236D01*
X138563503Y-108723394D01*
X138577599Y-108723058D01*
X138581000Y-108715116D01*
X138581000Y-106174035D01*
X138574341Y-106151357D01*
X138574341Y-106080361D01*
X138606142Y-106026763D01*
X140461253Y-104171652D01*
X140469539Y-104164112D01*
X140476018Y-104160000D01*
X140522644Y-104110348D01*
X140525398Y-104107507D01*
X140545135Y-104087770D01*
X140547615Y-104084573D01*
X140555320Y-104075551D01*
X140580159Y-104049100D01*
X140585586Y-104043321D01*
X140589405Y-104036375D01*
X140589407Y-104036372D01*
X140595348Y-104025566D01*
X140606199Y-104009047D01*
X140613758Y-103999301D01*
X140618614Y-103993041D01*
X140621759Y-103985772D01*
X140621762Y-103985768D01*
X140636174Y-103952463D01*
X140641391Y-103941813D01*
X140662695Y-103903060D01*
X140667733Y-103883437D01*
X140674137Y-103864734D01*
X140679033Y-103853420D01*
X140679033Y-103853419D01*
X140682181Y-103846145D01*
X140683420Y-103838322D01*
X140683423Y-103838312D01*
X140689099Y-103802476D01*
X140691505Y-103790856D01*
X140700528Y-103755711D01*
X140700528Y-103755710D01*
X140702500Y-103748030D01*
X140702500Y-103727776D01*
X140704051Y-103708065D01*
X140705980Y-103695886D01*
X140707220Y-103688057D01*
X140703059Y-103644038D01*
X140702500Y-103632181D01*
X140702500Y-103506831D01*
X140722502Y-103438710D01*
X140776158Y-103392217D01*
X140828500Y-103380831D01*
X140917134Y-103380831D01*
X140979316Y-103374076D01*
X141115705Y-103322946D01*
X141232261Y-103235592D01*
X141319615Y-103119036D01*
X141370745Y-102982647D01*
X141377500Y-102920465D01*
X141377500Y-102598318D01*
X145417721Y-102598318D01*
X145426548Y-102609936D01*
X145649281Y-102771761D01*
X145655961Y-102776001D01*
X145925572Y-102924221D01*
X145932707Y-102927578D01*
X146218770Y-103040839D01*
X146226296Y-103043284D01*
X146524279Y-103119793D01*
X146532050Y-103121276D01*
X146837278Y-103159834D01*
X146845169Y-103160331D01*
X147152831Y-103160331D01*
X147160722Y-103159834D01*
X147465950Y-103121276D01*
X147473721Y-103119793D01*
X147771704Y-103043284D01*
X147779230Y-103040839D01*
X148065293Y-102927578D01*
X148072428Y-102924221D01*
X148342039Y-102776001D01*
X148348719Y-102771761D01*
X148571823Y-102609667D01*
X148580246Y-102598744D01*
X148573342Y-102585883D01*
X147011812Y-101024353D01*
X146997868Y-101016739D01*
X146996035Y-101016870D01*
X146989420Y-101021121D01*
X145424334Y-102586207D01*
X145417721Y-102598318D01*
X141377500Y-102598318D01*
X141377500Y-101224197D01*
X141370745Y-101162015D01*
X141319615Y-101025626D01*
X141232261Y-100909070D01*
X141115705Y-100821716D01*
X140979316Y-100770586D01*
X140917134Y-100763831D01*
X139220866Y-100763831D01*
X139158684Y-100770586D01*
X139022295Y-100821716D01*
X138905739Y-100909070D01*
X138818385Y-101025626D01*
X138767255Y-101162015D01*
X138760500Y-101224197D01*
X138760500Y-101542004D01*
X138740498Y-101610125D01*
X138686842Y-101656618D01*
X138616568Y-101666722D01*
X138551988Y-101637228D01*
X138520305Y-101595254D01*
X138438849Y-101420569D01*
X138438844Y-101420560D01*
X138436523Y-101415582D01*
X138305198Y-101228031D01*
X138143300Y-101066133D01*
X138138792Y-101062976D01*
X138138789Y-101062974D01*
X137996475Y-100963325D01*
X137955749Y-100934808D01*
X137950767Y-100932485D01*
X137950762Y-100932482D01*
X137753225Y-100840370D01*
X137753224Y-100840370D01*
X137748243Y-100838047D01*
X137742935Y-100836625D01*
X137742933Y-100836624D01*
X137532402Y-100780212D01*
X137532400Y-100780212D01*
X137527087Y-100778788D01*
X137299000Y-100758833D01*
X137070913Y-100778788D01*
X137065600Y-100780212D01*
X137065598Y-100780212D01*
X136855067Y-100836624D01*
X136855065Y-100836625D01*
X136849757Y-100838047D01*
X136844776Y-100840370D01*
X136844775Y-100840370D01*
X136647238Y-100932482D01*
X136647233Y-100932485D01*
X136642251Y-100934808D01*
X136601525Y-100963325D01*
X136459211Y-101062974D01*
X136459208Y-101062976D01*
X136454700Y-101066133D01*
X136292802Y-101228031D01*
X136161477Y-101415582D01*
X136159156Y-101420560D01*
X136159151Y-101420569D01*
X136102526Y-101542004D01*
X136064716Y-101623088D01*
X136063294Y-101628396D01*
X136063293Y-101628398D01*
X136035707Y-101731350D01*
X135998755Y-101791973D01*
X135934894Y-101822994D01*
X135864400Y-101814566D01*
X135809653Y-101769363D01*
X135792293Y-101731350D01*
X135764707Y-101628398D01*
X135764706Y-101628396D01*
X135763284Y-101623088D01*
X135725474Y-101542004D01*
X135668849Y-101420569D01*
X135668844Y-101420560D01*
X135666523Y-101415582D01*
X135535198Y-101228031D01*
X135373300Y-101066133D01*
X135368792Y-101062976D01*
X135368789Y-101062974D01*
X135226475Y-100963325D01*
X135185749Y-100934808D01*
X135180767Y-100932485D01*
X135180762Y-100932482D01*
X134983225Y-100840370D01*
X134983224Y-100840370D01*
X134978243Y-100838047D01*
X134972935Y-100836625D01*
X134972933Y-100836624D01*
X134762402Y-100780212D01*
X134762400Y-100780212D01*
X134757087Y-100778788D01*
X134529000Y-100758833D01*
X134300913Y-100778788D01*
X134295600Y-100780212D01*
X134295598Y-100780212D01*
X134085067Y-100836624D01*
X134085065Y-100836625D01*
X134079757Y-100838047D01*
X134074776Y-100840370D01*
X134074775Y-100840370D01*
X133877238Y-100932482D01*
X133877233Y-100932485D01*
X133872251Y-100934808D01*
X133831525Y-100963325D01*
X133689211Y-101062974D01*
X133689208Y-101062976D01*
X133684700Y-101066133D01*
X133522802Y-101228031D01*
X133391477Y-101415582D01*
X133389156Y-101420560D01*
X133389151Y-101420569D01*
X133332526Y-101542004D01*
X133294716Y-101623088D01*
X133293294Y-101628396D01*
X133293293Y-101628398D01*
X133265707Y-101731350D01*
X133228755Y-101791973D01*
X133164894Y-101822994D01*
X133094400Y-101814566D01*
X133039653Y-101769363D01*
X133022293Y-101731350D01*
X132994707Y-101628398D01*
X132994706Y-101628396D01*
X132993284Y-101623088D01*
X132955474Y-101542004D01*
X132898849Y-101420569D01*
X132898844Y-101420560D01*
X132896523Y-101415582D01*
X132765198Y-101228031D01*
X132603300Y-101066133D01*
X132598792Y-101062976D01*
X132598789Y-101062974D01*
X132492687Y-100988680D01*
X132448359Y-100933222D01*
X132441050Y-100862603D01*
X132475863Y-100796372D01*
X132615946Y-100656289D01*
X144486290Y-100656289D01*
X144505607Y-100963325D01*
X144506600Y-100971186D01*
X144564246Y-101273377D01*
X144566217Y-101281054D01*
X144661284Y-101573640D01*
X144664199Y-101581003D01*
X144795189Y-101859372D01*
X144799001Y-101866305D01*
X144963851Y-102126067D01*
X144968495Y-102132460D01*
X145043497Y-102223121D01*
X145056014Y-102231576D01*
X145066752Y-102225369D01*
X146626978Y-100665143D01*
X146633356Y-100653463D01*
X147363408Y-100653463D01*
X147363539Y-100655296D01*
X147367790Y-100661911D01*
X148930145Y-102224266D01*
X148943407Y-102231508D01*
X148953512Y-102224319D01*
X149029505Y-102132460D01*
X149034149Y-102126067D01*
X149198999Y-101866305D01*
X149202811Y-101859372D01*
X149333801Y-101581003D01*
X149336716Y-101573640D01*
X149431783Y-101281054D01*
X149433754Y-101273377D01*
X149491400Y-100971186D01*
X149492393Y-100963325D01*
X149511710Y-100656289D01*
X149511710Y-100648373D01*
X149492393Y-100341337D01*
X149491400Y-100333476D01*
X149433754Y-100031285D01*
X149431783Y-100023608D01*
X149336716Y-99731022D01*
X149333801Y-99723659D01*
X149202811Y-99445290D01*
X149198999Y-99438357D01*
X149034149Y-99178595D01*
X149029505Y-99172202D01*
X148954503Y-99081541D01*
X148941986Y-99073086D01*
X148931248Y-99079293D01*
X147371022Y-100639519D01*
X147363408Y-100653463D01*
X146633356Y-100653463D01*
X146634592Y-100651199D01*
X146634461Y-100649366D01*
X146630210Y-100642751D01*
X145067855Y-99080396D01*
X145054593Y-99073154D01*
X145044488Y-99080343D01*
X144968495Y-99172202D01*
X144963851Y-99178595D01*
X144799001Y-99438357D01*
X144795189Y-99445290D01*
X144664199Y-99723659D01*
X144661284Y-99731022D01*
X144566217Y-100023608D01*
X144564246Y-100031285D01*
X144506600Y-100333476D01*
X144505607Y-100341337D01*
X144486290Y-100648373D01*
X144486290Y-100656289D01*
X132615946Y-100656289D01*
X132730752Y-100541483D01*
X132793064Y-100507457D01*
X132852459Y-100508872D01*
X132910591Y-100524449D01*
X132910602Y-100524451D01*
X132915913Y-100525874D01*
X133144000Y-100545829D01*
X133372087Y-100525874D01*
X133377400Y-100524450D01*
X133377402Y-100524450D01*
X133587933Y-100468038D01*
X133587935Y-100468037D01*
X133593243Y-100466615D01*
X133599235Y-100463821D01*
X133795762Y-100372180D01*
X133795767Y-100372177D01*
X133800749Y-100369854D01*
X133917945Y-100287792D01*
X133983789Y-100241688D01*
X133983792Y-100241686D01*
X133988300Y-100238529D01*
X134150198Y-100076631D01*
X134281523Y-99889080D01*
X134283846Y-99884098D01*
X134283849Y-99884093D01*
X134375961Y-99686556D01*
X134375961Y-99686555D01*
X134378284Y-99681574D01*
X134398976Y-99604353D01*
X134407293Y-99573312D01*
X134444245Y-99512689D01*
X134508106Y-99481668D01*
X134578600Y-99490096D01*
X134633347Y-99535299D01*
X134650707Y-99573312D01*
X134659025Y-99604353D01*
X134679716Y-99681574D01*
X134682039Y-99686555D01*
X134682039Y-99686556D01*
X134774151Y-99884093D01*
X134774154Y-99884098D01*
X134776477Y-99889080D01*
X134907802Y-100076631D01*
X135069700Y-100238529D01*
X135074208Y-100241686D01*
X135074211Y-100241688D01*
X135140055Y-100287792D01*
X135257251Y-100369854D01*
X135262233Y-100372177D01*
X135262238Y-100372180D01*
X135458765Y-100463821D01*
X135464757Y-100466615D01*
X135470065Y-100468037D01*
X135470067Y-100468038D01*
X135680598Y-100524450D01*
X135680600Y-100524450D01*
X135685913Y-100525874D01*
X135914000Y-100545829D01*
X136142087Y-100525874D01*
X136147400Y-100524450D01*
X136147402Y-100524450D01*
X136357933Y-100468038D01*
X136357935Y-100468037D01*
X136363243Y-100466615D01*
X136369235Y-100463821D01*
X136565762Y-100372180D01*
X136565767Y-100372177D01*
X136570749Y-100369854D01*
X136687945Y-100287792D01*
X136753789Y-100241688D01*
X136753792Y-100241686D01*
X136758300Y-100238529D01*
X136920198Y-100076631D01*
X137051523Y-99889080D01*
X137053846Y-99884098D01*
X137053849Y-99884093D01*
X137145961Y-99686556D01*
X137145961Y-99686555D01*
X137148284Y-99681574D01*
X137168976Y-99604353D01*
X137177293Y-99573312D01*
X137214245Y-99512689D01*
X137278106Y-99481668D01*
X137348600Y-99490096D01*
X137403347Y-99535299D01*
X137420707Y-99573312D01*
X137429025Y-99604353D01*
X137449716Y-99681574D01*
X137452039Y-99686555D01*
X137452039Y-99686556D01*
X137544151Y-99884093D01*
X137544154Y-99884098D01*
X137546477Y-99889080D01*
X137677802Y-100076631D01*
X137839700Y-100238529D01*
X137844208Y-100241686D01*
X137844211Y-100241688D01*
X137910055Y-100287792D01*
X138027251Y-100369854D01*
X138032233Y-100372177D01*
X138032238Y-100372180D01*
X138228765Y-100463821D01*
X138234757Y-100466615D01*
X138240065Y-100468037D01*
X138240067Y-100468038D01*
X138450598Y-100524450D01*
X138450600Y-100524450D01*
X138455913Y-100525874D01*
X138684000Y-100545829D01*
X138912087Y-100525874D01*
X138917400Y-100524450D01*
X138917402Y-100524450D01*
X139127933Y-100468038D01*
X139127935Y-100468037D01*
X139133243Y-100466615D01*
X139139235Y-100463821D01*
X139335762Y-100372180D01*
X139335767Y-100372177D01*
X139340749Y-100369854D01*
X139457945Y-100287792D01*
X139523789Y-100241688D01*
X139523792Y-100241686D01*
X139528300Y-100238529D01*
X139690198Y-100076631D01*
X139821523Y-99889080D01*
X139823846Y-99884098D01*
X139823849Y-99884093D01*
X139915961Y-99686556D01*
X139915961Y-99686555D01*
X139918284Y-99681574D01*
X139938976Y-99604353D01*
X139976119Y-99465733D01*
X139976119Y-99465731D01*
X139977543Y-99460418D01*
X139997498Y-99232331D01*
X139977543Y-99004244D01*
X139976119Y-98998929D01*
X139919707Y-98788398D01*
X139919706Y-98788395D01*
X139918284Y-98783088D01*
X139915961Y-98778106D01*
X139882300Y-98705918D01*
X145417754Y-98705918D01*
X145424658Y-98718779D01*
X146986188Y-100280309D01*
X147000132Y-100287923D01*
X147001965Y-100287792D01*
X147008580Y-100283541D01*
X148573666Y-98718455D01*
X148580279Y-98706344D01*
X148571452Y-98694726D01*
X148348719Y-98532901D01*
X148342039Y-98528661D01*
X148072428Y-98380441D01*
X148065293Y-98377084D01*
X147779230Y-98263823D01*
X147771704Y-98261378D01*
X147473721Y-98184869D01*
X147465950Y-98183386D01*
X147160722Y-98144828D01*
X147152831Y-98144331D01*
X146845169Y-98144331D01*
X146837278Y-98144828D01*
X146532050Y-98183386D01*
X146524279Y-98184869D01*
X146226296Y-98261378D01*
X146218770Y-98263823D01*
X145932707Y-98377084D01*
X145925572Y-98380441D01*
X145655961Y-98528661D01*
X145649281Y-98532901D01*
X145426177Y-98694995D01*
X145417754Y-98705918D01*
X139882300Y-98705918D01*
X139823849Y-98580569D01*
X139823846Y-98580564D01*
X139821523Y-98575582D01*
X139690198Y-98388031D01*
X139528300Y-98226133D01*
X139523792Y-98222976D01*
X139523789Y-98222974D01*
X139397920Y-98134840D01*
X139340749Y-98094808D01*
X139335767Y-98092485D01*
X139335762Y-98092482D01*
X139138225Y-98000370D01*
X139138224Y-98000370D01*
X139133243Y-97998047D01*
X139127935Y-97996625D01*
X139127933Y-97996624D01*
X138917402Y-97940212D01*
X138917400Y-97940212D01*
X138912087Y-97938788D01*
X138684000Y-97918833D01*
X138455913Y-97938788D01*
X138450600Y-97940212D01*
X138450598Y-97940212D01*
X138240067Y-97996624D01*
X138240065Y-97996625D01*
X138234757Y-97998047D01*
X138229776Y-98000370D01*
X138229775Y-98000370D01*
X138032238Y-98092482D01*
X138032233Y-98092485D01*
X138027251Y-98094808D01*
X137970080Y-98134840D01*
X137844211Y-98222974D01*
X137844208Y-98222976D01*
X137839700Y-98226133D01*
X137677802Y-98388031D01*
X137546477Y-98575582D01*
X137544154Y-98580564D01*
X137544151Y-98580569D01*
X137452039Y-98778106D01*
X137449716Y-98783088D01*
X137448294Y-98788395D01*
X137448293Y-98788398D01*
X137420707Y-98891350D01*
X137383755Y-98951973D01*
X137319894Y-98982994D01*
X137249400Y-98974566D01*
X137194653Y-98929363D01*
X137177293Y-98891350D01*
X137149707Y-98788398D01*
X137149706Y-98788395D01*
X137148284Y-98783088D01*
X137145961Y-98778106D01*
X137053849Y-98580569D01*
X137053846Y-98580564D01*
X137051523Y-98575582D01*
X136920198Y-98388031D01*
X136758300Y-98226133D01*
X136753792Y-98222976D01*
X136753789Y-98222974D01*
X136627920Y-98134840D01*
X136570749Y-98094808D01*
X136565767Y-98092485D01*
X136565762Y-98092482D01*
X136368225Y-98000370D01*
X136368224Y-98000370D01*
X136363243Y-97998047D01*
X136357935Y-97996625D01*
X136357933Y-97996624D01*
X136147402Y-97940212D01*
X136147400Y-97940212D01*
X136142087Y-97938788D01*
X135914000Y-97918833D01*
X135685913Y-97938788D01*
X135680600Y-97940212D01*
X135680598Y-97940212D01*
X135470067Y-97996624D01*
X135470065Y-97996625D01*
X135464757Y-97998047D01*
X135459776Y-98000370D01*
X135459775Y-98000370D01*
X135262238Y-98092482D01*
X135262233Y-98092485D01*
X135257251Y-98094808D01*
X135200080Y-98134840D01*
X135074211Y-98222974D01*
X135074208Y-98222976D01*
X135069700Y-98226133D01*
X134907802Y-98388031D01*
X134776477Y-98575582D01*
X134774154Y-98580564D01*
X134774151Y-98580569D01*
X134682039Y-98778106D01*
X134679716Y-98783088D01*
X134678294Y-98788395D01*
X134678293Y-98788398D01*
X134650707Y-98891350D01*
X134613755Y-98951973D01*
X134549894Y-98982994D01*
X134479400Y-98974566D01*
X134424653Y-98929363D01*
X134407293Y-98891350D01*
X134379707Y-98788398D01*
X134379706Y-98788395D01*
X134378284Y-98783088D01*
X134375961Y-98778106D01*
X134283849Y-98580569D01*
X134283846Y-98580564D01*
X134281523Y-98575582D01*
X134150198Y-98388031D01*
X133988300Y-98226133D01*
X133983792Y-98222976D01*
X133983789Y-98222974D01*
X133857920Y-98134840D01*
X133800749Y-98094808D01*
X133795767Y-98092485D01*
X133795762Y-98092482D01*
X133598225Y-98000370D01*
X133598224Y-98000370D01*
X133593243Y-97998047D01*
X133587935Y-97996625D01*
X133587933Y-97996624D01*
X133377402Y-97940212D01*
X133377400Y-97940212D01*
X133372087Y-97938788D01*
X133144000Y-97918833D01*
X132915913Y-97938788D01*
X132910600Y-97940212D01*
X132910598Y-97940212D01*
X132700067Y-97996624D01*
X132700065Y-97996625D01*
X132694757Y-97998047D01*
X132689776Y-98000370D01*
X132689775Y-98000370D01*
X132492238Y-98092482D01*
X132492233Y-98092485D01*
X132487251Y-98094808D01*
X132430080Y-98134840D01*
X132304211Y-98222974D01*
X132304208Y-98222976D01*
X132299700Y-98226133D01*
X132137802Y-98388031D01*
X132006477Y-98575582D01*
X132004154Y-98580564D01*
X132004151Y-98580569D01*
X131912039Y-98778106D01*
X131909716Y-98783088D01*
X131908294Y-98788395D01*
X131908293Y-98788398D01*
X131880707Y-98891350D01*
X131843755Y-98951973D01*
X131779894Y-98982994D01*
X131709400Y-98974566D01*
X131654653Y-98929363D01*
X131637293Y-98891350D01*
X131609707Y-98788398D01*
X131609706Y-98788395D01*
X131608284Y-98783088D01*
X131605961Y-98778106D01*
X131513849Y-98580569D01*
X131513846Y-98580564D01*
X131511523Y-98575582D01*
X131380198Y-98388031D01*
X131218300Y-98226133D01*
X131213792Y-98222976D01*
X131213789Y-98222974D01*
X131087920Y-98134840D01*
X131030749Y-98094808D01*
X131025767Y-98092485D01*
X131025762Y-98092482D01*
X130828225Y-98000370D01*
X130828224Y-98000370D01*
X130823243Y-97998047D01*
X130817935Y-97996625D01*
X130817933Y-97996624D01*
X130607402Y-97940212D01*
X130607400Y-97940212D01*
X130602087Y-97938788D01*
X130374000Y-97918833D01*
X130145913Y-97938788D01*
X130140600Y-97940212D01*
X130140598Y-97940212D01*
X129930067Y-97996624D01*
X129930065Y-97996625D01*
X129924757Y-97998047D01*
X129919776Y-98000370D01*
X129919775Y-98000370D01*
X129722238Y-98092482D01*
X129722233Y-98092485D01*
X129717251Y-98094808D01*
X129660080Y-98134840D01*
X129534211Y-98222974D01*
X129534208Y-98222976D01*
X129529700Y-98226133D01*
X129367802Y-98388031D01*
X129236477Y-98575582D01*
X129234154Y-98580564D01*
X129234151Y-98580569D01*
X129142039Y-98778106D01*
X129139716Y-98783088D01*
X129138294Y-98788395D01*
X129110448Y-98892317D01*
X129073496Y-98952939D01*
X129009635Y-98983961D01*
X128939141Y-98975532D01*
X128884394Y-98930329D01*
X128867034Y-98892316D01*
X128839236Y-98788570D01*
X128835490Y-98778278D01*
X128743414Y-98580820D01*
X128737931Y-98571325D01*
X128701491Y-98519283D01*
X128691012Y-98510907D01*
X128677566Y-98517975D01*
X127693095Y-99502446D01*
X127630783Y-99536472D01*
X127559968Y-99531407D01*
X127514905Y-99502446D01*
X126529713Y-98517254D01*
X126517938Y-98510824D01*
X126505923Y-98520120D01*
X126470069Y-98571325D01*
X126464586Y-98580820D01*
X126372510Y-98778278D01*
X126368764Y-98788570D01*
X126340707Y-98893281D01*
X126303755Y-98953904D01*
X126239895Y-98984925D01*
X126169400Y-98976497D01*
X126114653Y-98931294D01*
X126097293Y-98893281D01*
X126069236Y-98788570D01*
X126065490Y-98778278D01*
X125973414Y-98580820D01*
X125967931Y-98571325D01*
X125931491Y-98519283D01*
X125921012Y-98510907D01*
X125907566Y-98517975D01*
X124923095Y-99502446D01*
X124860783Y-99536472D01*
X124789968Y-99531407D01*
X124744905Y-99502446D01*
X123759713Y-98517254D01*
X123747938Y-98510824D01*
X123735923Y-98520120D01*
X123700069Y-98571325D01*
X123694586Y-98580820D01*
X123602510Y-98778278D01*
X123598764Y-98788570D01*
X123570707Y-98893281D01*
X123533755Y-98953904D01*
X123469895Y-98984925D01*
X123399400Y-98976497D01*
X123344653Y-98931294D01*
X123327293Y-98893281D01*
X123299236Y-98788570D01*
X123295490Y-98778278D01*
X123203414Y-98580820D01*
X123197931Y-98571325D01*
X123161491Y-98519283D01*
X123151012Y-98510907D01*
X123137566Y-98517975D01*
X122153095Y-99502446D01*
X122090783Y-99536472D01*
X122019968Y-99531407D01*
X121974905Y-99502446D01*
X120989713Y-98517254D01*
X120977938Y-98510824D01*
X120965923Y-98520120D01*
X120930069Y-98571325D01*
X120924586Y-98580820D01*
X120832510Y-98778278D01*
X120828764Y-98788570D01*
X120800707Y-98893281D01*
X120763755Y-98953904D01*
X120699895Y-98984925D01*
X120629400Y-98976497D01*
X120574653Y-98931294D01*
X120557293Y-98893281D01*
X120529236Y-98788570D01*
X120525490Y-98778278D01*
X120433414Y-98580820D01*
X120427931Y-98571325D01*
X120391491Y-98519283D01*
X120381012Y-98510907D01*
X120367566Y-98517975D01*
X119383095Y-99502446D01*
X119320783Y-99536472D01*
X119249968Y-99531407D01*
X119204905Y-99502446D01*
X118219713Y-98517254D01*
X118207938Y-98510824D01*
X118195923Y-98520120D01*
X118160069Y-98571325D01*
X118154586Y-98580820D01*
X118062510Y-98778278D01*
X118058764Y-98788570D01*
X118030707Y-98893281D01*
X117993755Y-98953904D01*
X117929895Y-98984925D01*
X117859400Y-98976497D01*
X117804653Y-98931294D01*
X117787293Y-98893281D01*
X117759236Y-98788570D01*
X117755490Y-98778278D01*
X117663414Y-98580820D01*
X117657931Y-98571325D01*
X117621491Y-98519283D01*
X117611012Y-98510907D01*
X117597566Y-98517975D01*
X116613095Y-99502446D01*
X116550783Y-99536472D01*
X116479968Y-99531407D01*
X116434905Y-99502446D01*
X115449713Y-98517254D01*
X115437938Y-98510824D01*
X115425923Y-98520120D01*
X115390069Y-98571325D01*
X115384586Y-98580820D01*
X115292510Y-98778278D01*
X115288764Y-98788570D01*
X115260707Y-98893281D01*
X115223755Y-98953904D01*
X115159895Y-98984925D01*
X115089400Y-98976497D01*
X115034653Y-98931294D01*
X115017293Y-98893281D01*
X114989236Y-98788570D01*
X114985490Y-98778278D01*
X114893414Y-98580820D01*
X114887931Y-98571325D01*
X114851491Y-98519283D01*
X114841012Y-98510907D01*
X114827566Y-98517975D01*
X113038923Y-100306618D01*
X113032493Y-100318393D01*
X113041789Y-100330408D01*
X113092994Y-100366262D01*
X113102489Y-100371745D01*
X113299947Y-100463821D01*
X113310239Y-100467567D01*
X113520688Y-100523956D01*
X113531481Y-100525859D01*
X113748525Y-100544848D01*
X113759475Y-100544848D01*
X113875002Y-100534741D01*
X113944606Y-100548730D01*
X113995599Y-100598130D01*
X114011789Y-100667256D01*
X113988036Y-100734161D01*
X113975078Y-100749357D01*
X113524896Y-101199539D01*
X113462584Y-101233565D01*
X113391769Y-101228500D01*
X113346706Y-101199539D01*
X113213300Y-101066133D01*
X113208792Y-101062976D01*
X113208789Y-101062974D01*
X113066475Y-100963325D01*
X113025749Y-100934808D01*
X113020767Y-100932485D01*
X113020762Y-100932482D01*
X112823225Y-100840370D01*
X112823224Y-100840370D01*
X112818243Y-100838047D01*
X112812935Y-100836625D01*
X112812933Y-100836624D01*
X112602402Y-100780212D01*
X112602400Y-100780212D01*
X112597087Y-100778788D01*
X112369000Y-100758833D01*
X112140913Y-100778788D01*
X112135600Y-100780212D01*
X112135598Y-100780212D01*
X111925067Y-100836624D01*
X111925065Y-100836625D01*
X111919757Y-100838047D01*
X111914776Y-100840370D01*
X111914775Y-100840370D01*
X111717238Y-100932482D01*
X111717233Y-100932485D01*
X111712251Y-100934808D01*
X111671525Y-100963325D01*
X111529211Y-101062974D01*
X111529208Y-101062976D01*
X111524700Y-101066133D01*
X111362802Y-101228031D01*
X111231477Y-101415582D01*
X111229156Y-101420560D01*
X111229151Y-101420569D01*
X111172526Y-101542004D01*
X111134716Y-101623088D01*
X111133294Y-101628396D01*
X111133293Y-101628398D01*
X111105707Y-101731350D01*
X111068755Y-101791973D01*
X111004894Y-101822994D01*
X110934400Y-101814566D01*
X110879653Y-101769363D01*
X110862293Y-101731350D01*
X110834707Y-101628398D01*
X110834706Y-101628396D01*
X110833284Y-101623088D01*
X110795474Y-101542004D01*
X110738849Y-101420569D01*
X110738844Y-101420560D01*
X110736523Y-101415582D01*
X110605198Y-101228031D01*
X110443300Y-101066133D01*
X110438792Y-101062976D01*
X110438789Y-101062974D01*
X110296475Y-100963325D01*
X110255749Y-100934808D01*
X110250767Y-100932485D01*
X110250762Y-100932482D01*
X110053225Y-100840370D01*
X110053224Y-100840370D01*
X110048243Y-100838047D01*
X110042935Y-100836625D01*
X110042933Y-100836624D01*
X109832402Y-100780212D01*
X109832400Y-100780212D01*
X109827087Y-100778788D01*
X109599000Y-100758833D01*
X109370913Y-100778788D01*
X109365600Y-100780212D01*
X109365598Y-100780212D01*
X109155067Y-100836624D01*
X109155065Y-100836625D01*
X109149757Y-100838047D01*
X109144776Y-100840370D01*
X109144775Y-100840370D01*
X108947238Y-100932482D01*
X108947233Y-100932485D01*
X108942251Y-100934808D01*
X108901525Y-100963325D01*
X108759211Y-101062974D01*
X108759208Y-101062976D01*
X108754700Y-101066133D01*
X108592802Y-101228031D01*
X108461477Y-101415582D01*
X108459156Y-101420560D01*
X108459151Y-101420569D01*
X108402526Y-101542004D01*
X108364716Y-101623088D01*
X108363294Y-101628396D01*
X108363293Y-101628398D01*
X108335707Y-101731350D01*
X108298755Y-101791973D01*
X108234894Y-101822994D01*
X108164400Y-101814566D01*
X108109653Y-101769363D01*
X108092293Y-101731350D01*
X108064707Y-101628398D01*
X108064706Y-101628396D01*
X108063284Y-101623088D01*
X108025474Y-101542004D01*
X107968849Y-101420569D01*
X107968844Y-101420560D01*
X107966523Y-101415582D01*
X107835198Y-101228031D01*
X107673300Y-101066133D01*
X107668792Y-101062976D01*
X107668789Y-101062974D01*
X107526475Y-100963325D01*
X107485749Y-100934808D01*
X107480767Y-100932485D01*
X107480762Y-100932482D01*
X107283225Y-100840370D01*
X107283224Y-100840370D01*
X107278243Y-100838047D01*
X107272935Y-100836625D01*
X107272933Y-100836624D01*
X107062402Y-100780212D01*
X107062400Y-100780212D01*
X107057087Y-100778788D01*
X106829000Y-100758833D01*
X106600913Y-100778788D01*
X106595600Y-100780212D01*
X106595598Y-100780212D01*
X106385067Y-100836624D01*
X106385065Y-100836625D01*
X106379757Y-100838047D01*
X106374776Y-100840370D01*
X106374775Y-100840370D01*
X106177238Y-100932482D01*
X106177233Y-100932485D01*
X106172251Y-100934808D01*
X106131525Y-100963325D01*
X105989211Y-101062974D01*
X105989208Y-101062976D01*
X105984700Y-101066133D01*
X105822802Y-101228031D01*
X105691477Y-101415582D01*
X105689156Y-101420560D01*
X105689151Y-101420569D01*
X105632526Y-101542004D01*
X105594716Y-101623088D01*
X105593294Y-101628396D01*
X105593293Y-101628398D01*
X105583024Y-101666722D01*
X105535457Y-101844244D01*
X105515502Y-102072331D01*
X101968251Y-102072331D01*
X102098999Y-101866305D01*
X102102811Y-101859372D01*
X102233801Y-101581003D01*
X102236716Y-101573640D01*
X102331783Y-101281054D01*
X102333754Y-101273377D01*
X102391400Y-100971186D01*
X102392393Y-100963325D01*
X102411710Y-100656289D01*
X102411710Y-100648373D01*
X102392393Y-100341337D01*
X102391400Y-100333476D01*
X102388523Y-100318393D01*
X107492493Y-100318393D01*
X107501789Y-100330408D01*
X107552994Y-100366262D01*
X107562489Y-100371745D01*
X107759947Y-100463821D01*
X107770239Y-100467567D01*
X107980688Y-100523956D01*
X107991481Y-100525859D01*
X108208525Y-100544848D01*
X108219475Y-100544848D01*
X108436519Y-100525859D01*
X108447312Y-100523956D01*
X108657761Y-100467567D01*
X108668053Y-100463821D01*
X108865511Y-100371745D01*
X108875006Y-100366262D01*
X108927048Y-100329822D01*
X108935424Y-100319343D01*
X108934925Y-100318393D01*
X110262493Y-100318393D01*
X110271789Y-100330408D01*
X110322994Y-100366262D01*
X110332489Y-100371745D01*
X110529947Y-100463821D01*
X110540239Y-100467567D01*
X110750688Y-100523956D01*
X110761481Y-100525859D01*
X110978525Y-100544848D01*
X110989475Y-100544848D01*
X111206519Y-100525859D01*
X111217312Y-100523956D01*
X111427761Y-100467567D01*
X111438053Y-100463821D01*
X111635511Y-100371745D01*
X111645006Y-100366262D01*
X111697048Y-100329822D01*
X111705424Y-100319343D01*
X111698356Y-100305897D01*
X110996812Y-99604353D01*
X110982868Y-99596739D01*
X110981035Y-99596870D01*
X110974420Y-99601121D01*
X110268923Y-100306618D01*
X110262493Y-100318393D01*
X108934925Y-100318393D01*
X108928356Y-100305897D01*
X108226812Y-99604353D01*
X108212868Y-99596739D01*
X108211035Y-99596870D01*
X108204420Y-99601121D01*
X107498923Y-100306618D01*
X107492493Y-100318393D01*
X102388523Y-100318393D01*
X102333754Y-100031285D01*
X102331783Y-100023608D01*
X102236716Y-99731022D01*
X102233801Y-99723659D01*
X102102811Y-99445290D01*
X102098999Y-99438357D01*
X101971725Y-99237806D01*
X106901483Y-99237806D01*
X106920472Y-99454850D01*
X106922375Y-99465643D01*
X106978764Y-99676092D01*
X106982510Y-99686384D01*
X107074586Y-99883842D01*
X107080069Y-99893337D01*
X107116509Y-99945379D01*
X107126988Y-99953755D01*
X107140434Y-99946687D01*
X107841978Y-99245143D01*
X107848356Y-99233463D01*
X108578408Y-99233463D01*
X108578539Y-99235296D01*
X108582790Y-99241911D01*
X109288287Y-99947408D01*
X109300062Y-99953838D01*
X109312077Y-99944542D01*
X109347931Y-99893337D01*
X109353414Y-99883842D01*
X109445490Y-99686384D01*
X109449236Y-99676092D01*
X109477293Y-99571381D01*
X109514245Y-99510758D01*
X109578105Y-99479737D01*
X109648600Y-99488165D01*
X109703347Y-99533368D01*
X109720707Y-99571381D01*
X109748764Y-99676092D01*
X109752510Y-99686384D01*
X109844586Y-99883842D01*
X109850069Y-99893337D01*
X109886509Y-99945379D01*
X109896988Y-99953755D01*
X109910434Y-99946687D01*
X110611978Y-99245143D01*
X110618356Y-99233463D01*
X111348408Y-99233463D01*
X111348539Y-99235296D01*
X111352790Y-99241911D01*
X112058287Y-99947408D01*
X112070062Y-99953838D01*
X112082077Y-99944542D01*
X112117931Y-99893337D01*
X112123414Y-99883842D01*
X112215490Y-99686384D01*
X112219236Y-99676092D01*
X112247293Y-99571381D01*
X112284245Y-99510758D01*
X112348105Y-99479737D01*
X112418600Y-99488165D01*
X112473347Y-99533368D01*
X112490707Y-99571381D01*
X112518764Y-99676092D01*
X112522510Y-99686384D01*
X112614586Y-99883842D01*
X112620069Y-99893337D01*
X112656509Y-99945379D01*
X112666988Y-99953755D01*
X112680434Y-99946687D01*
X113381978Y-99245143D01*
X113389592Y-99231199D01*
X113389461Y-99229366D01*
X113385210Y-99222751D01*
X112679713Y-98517254D01*
X112667938Y-98510824D01*
X112655923Y-98520120D01*
X112620069Y-98571325D01*
X112614586Y-98580820D01*
X112522510Y-98778278D01*
X112518764Y-98788570D01*
X112490707Y-98893281D01*
X112453755Y-98953904D01*
X112389895Y-98984925D01*
X112319400Y-98976497D01*
X112264653Y-98931294D01*
X112247293Y-98893281D01*
X112219236Y-98788570D01*
X112215490Y-98778278D01*
X112123414Y-98580820D01*
X112117931Y-98571325D01*
X112081491Y-98519283D01*
X112071012Y-98510907D01*
X112057566Y-98517975D01*
X111356022Y-99219519D01*
X111348408Y-99233463D01*
X110618356Y-99233463D01*
X110619592Y-99231199D01*
X110619461Y-99229366D01*
X110615210Y-99222751D01*
X109909713Y-98517254D01*
X109897938Y-98510824D01*
X109885923Y-98520120D01*
X109850069Y-98571325D01*
X109844586Y-98580820D01*
X109752510Y-98778278D01*
X109748764Y-98788570D01*
X109720707Y-98893281D01*
X109683755Y-98953904D01*
X109619895Y-98984925D01*
X109549400Y-98976497D01*
X109494653Y-98931294D01*
X109477293Y-98893281D01*
X109449236Y-98788570D01*
X109445490Y-98778278D01*
X109353414Y-98580820D01*
X109347931Y-98571325D01*
X109311491Y-98519283D01*
X109301012Y-98510907D01*
X109287566Y-98517975D01*
X108586022Y-99219519D01*
X108578408Y-99233463D01*
X107848356Y-99233463D01*
X107849592Y-99231199D01*
X107849461Y-99229366D01*
X107845210Y-99222751D01*
X107139713Y-98517254D01*
X107127938Y-98510824D01*
X107115923Y-98520120D01*
X107080069Y-98571325D01*
X107074586Y-98580820D01*
X106982510Y-98778278D01*
X106978764Y-98788570D01*
X106922375Y-98999019D01*
X106920472Y-99009812D01*
X106901483Y-99226856D01*
X106901483Y-99237806D01*
X101971725Y-99237806D01*
X101934149Y-99178595D01*
X101929505Y-99172202D01*
X101854503Y-99081541D01*
X101841986Y-99073086D01*
X101831248Y-99079293D01*
X100271022Y-100639519D01*
X100263408Y-100653463D01*
X99533356Y-100653463D01*
X99534592Y-100651199D01*
X99534461Y-100649366D01*
X99530210Y-100642751D01*
X97967855Y-99080396D01*
X97954593Y-99073154D01*
X97944488Y-99080343D01*
X97868495Y-99172202D01*
X97863851Y-99178595D01*
X97699001Y-99438357D01*
X97695189Y-99445290D01*
X97564199Y-99723659D01*
X97561284Y-99731022D01*
X97466217Y-100023608D01*
X97464246Y-100031285D01*
X97406600Y-100333476D01*
X97405607Y-100341337D01*
X97386290Y-100648373D01*
X97386290Y-100656289D01*
X96520500Y-100656289D01*
X96520500Y-98705918D01*
X98317754Y-98705918D01*
X98324658Y-98718779D01*
X99886188Y-100280309D01*
X99900132Y-100287923D01*
X99901965Y-100287792D01*
X99908580Y-100283541D01*
X101473666Y-98718455D01*
X101480279Y-98706344D01*
X101471452Y-98694726D01*
X101248719Y-98532901D01*
X101242039Y-98528661D01*
X100972428Y-98380441D01*
X100965293Y-98377084D01*
X100679230Y-98263823D01*
X100671704Y-98261378D01*
X100373721Y-98184869D01*
X100365950Y-98183386D01*
X100064609Y-98145319D01*
X107492576Y-98145319D01*
X107499644Y-98158765D01*
X108201188Y-98860309D01*
X108215132Y-98867923D01*
X108216965Y-98867792D01*
X108223580Y-98863541D01*
X108929077Y-98158044D01*
X108935507Y-98146269D01*
X108934772Y-98145319D01*
X110262576Y-98145319D01*
X110269644Y-98158765D01*
X110971188Y-98860309D01*
X110985132Y-98867923D01*
X110986965Y-98867792D01*
X110993580Y-98863541D01*
X111699077Y-98158044D01*
X111705507Y-98146269D01*
X111704772Y-98145319D01*
X113032576Y-98145319D01*
X113039644Y-98158765D01*
X113741188Y-98860309D01*
X113755132Y-98867923D01*
X113756965Y-98867792D01*
X113763580Y-98863541D01*
X114469077Y-98158044D01*
X114475507Y-98146269D01*
X114474772Y-98145319D01*
X115802576Y-98145319D01*
X115809644Y-98158765D01*
X116511188Y-98860309D01*
X116525132Y-98867923D01*
X116526965Y-98867792D01*
X116533580Y-98863541D01*
X117239077Y-98158044D01*
X117245507Y-98146269D01*
X117244772Y-98145319D01*
X118572576Y-98145319D01*
X118579644Y-98158765D01*
X119281188Y-98860309D01*
X119295132Y-98867923D01*
X119296965Y-98867792D01*
X119303580Y-98863541D01*
X120009077Y-98158044D01*
X120015507Y-98146269D01*
X120014772Y-98145319D01*
X121342576Y-98145319D01*
X121349644Y-98158765D01*
X122051188Y-98860309D01*
X122065132Y-98867923D01*
X122066965Y-98867792D01*
X122073580Y-98863541D01*
X122779077Y-98158044D01*
X122785507Y-98146269D01*
X122784772Y-98145319D01*
X124112576Y-98145319D01*
X124119644Y-98158765D01*
X124821188Y-98860309D01*
X124835132Y-98867923D01*
X124836965Y-98867792D01*
X124843580Y-98863541D01*
X125549077Y-98158044D01*
X125555507Y-98146269D01*
X125554772Y-98145319D01*
X126882576Y-98145319D01*
X126889644Y-98158765D01*
X127591188Y-98860309D01*
X127605132Y-98867923D01*
X127606965Y-98867792D01*
X127613580Y-98863541D01*
X128319077Y-98158044D01*
X128325507Y-98146269D01*
X128316211Y-98134254D01*
X128265006Y-98098400D01*
X128255511Y-98092917D01*
X128058053Y-98000841D01*
X128047761Y-97997095D01*
X127837312Y-97940706D01*
X127826519Y-97938803D01*
X127609475Y-97919814D01*
X127598525Y-97919814D01*
X127381481Y-97938803D01*
X127370688Y-97940706D01*
X127160239Y-97997095D01*
X127149947Y-98000841D01*
X126952489Y-98092917D01*
X126942994Y-98098400D01*
X126890952Y-98134840D01*
X126882576Y-98145319D01*
X125554772Y-98145319D01*
X125546211Y-98134254D01*
X125495006Y-98098400D01*
X125485511Y-98092917D01*
X125288053Y-98000841D01*
X125277761Y-97997095D01*
X125067312Y-97940706D01*
X125056519Y-97938803D01*
X124839475Y-97919814D01*
X124828525Y-97919814D01*
X124611481Y-97938803D01*
X124600688Y-97940706D01*
X124390239Y-97997095D01*
X124379947Y-98000841D01*
X124182489Y-98092917D01*
X124172994Y-98098400D01*
X124120952Y-98134840D01*
X124112576Y-98145319D01*
X122784772Y-98145319D01*
X122776211Y-98134254D01*
X122725006Y-98098400D01*
X122715511Y-98092917D01*
X122518053Y-98000841D01*
X122507761Y-97997095D01*
X122297312Y-97940706D01*
X122286519Y-97938803D01*
X122069475Y-97919814D01*
X122058525Y-97919814D01*
X121841481Y-97938803D01*
X121830688Y-97940706D01*
X121620239Y-97997095D01*
X121609947Y-98000841D01*
X121412489Y-98092917D01*
X121402994Y-98098400D01*
X121350952Y-98134840D01*
X121342576Y-98145319D01*
X120014772Y-98145319D01*
X120006211Y-98134254D01*
X119955006Y-98098400D01*
X119945511Y-98092917D01*
X119748053Y-98000841D01*
X119737761Y-97997095D01*
X119527312Y-97940706D01*
X119516519Y-97938803D01*
X119299475Y-97919814D01*
X119288525Y-97919814D01*
X119071481Y-97938803D01*
X119060688Y-97940706D01*
X118850239Y-97997095D01*
X118839947Y-98000841D01*
X118642489Y-98092917D01*
X118632994Y-98098400D01*
X118580952Y-98134840D01*
X118572576Y-98145319D01*
X117244772Y-98145319D01*
X117236211Y-98134254D01*
X117185006Y-98098400D01*
X117175511Y-98092917D01*
X116978053Y-98000841D01*
X116967761Y-97997095D01*
X116757312Y-97940706D01*
X116746519Y-97938803D01*
X116529475Y-97919814D01*
X116518525Y-97919814D01*
X116301481Y-97938803D01*
X116290688Y-97940706D01*
X116080239Y-97997095D01*
X116069947Y-98000841D01*
X115872489Y-98092917D01*
X115862994Y-98098400D01*
X115810952Y-98134840D01*
X115802576Y-98145319D01*
X114474772Y-98145319D01*
X114466211Y-98134254D01*
X114415006Y-98098400D01*
X114405511Y-98092917D01*
X114208053Y-98000841D01*
X114197761Y-97997095D01*
X113987312Y-97940706D01*
X113976519Y-97938803D01*
X113759475Y-97919814D01*
X113748525Y-97919814D01*
X113531481Y-97938803D01*
X113520688Y-97940706D01*
X113310239Y-97997095D01*
X113299947Y-98000841D01*
X113102489Y-98092917D01*
X113092994Y-98098400D01*
X113040952Y-98134840D01*
X113032576Y-98145319D01*
X111704772Y-98145319D01*
X111696211Y-98134254D01*
X111645006Y-98098400D01*
X111635511Y-98092917D01*
X111438053Y-98000841D01*
X111427761Y-97997095D01*
X111217312Y-97940706D01*
X111206519Y-97938803D01*
X110989475Y-97919814D01*
X110978525Y-97919814D01*
X110761481Y-97938803D01*
X110750688Y-97940706D01*
X110540239Y-97997095D01*
X110529947Y-98000841D01*
X110332489Y-98092917D01*
X110322994Y-98098400D01*
X110270952Y-98134840D01*
X110262576Y-98145319D01*
X108934772Y-98145319D01*
X108926211Y-98134254D01*
X108875006Y-98098400D01*
X108865511Y-98092917D01*
X108668053Y-98000841D01*
X108657761Y-97997095D01*
X108447312Y-97940706D01*
X108436519Y-97938803D01*
X108219475Y-97919814D01*
X108208525Y-97919814D01*
X107991481Y-97938803D01*
X107980688Y-97940706D01*
X107770239Y-97997095D01*
X107759947Y-98000841D01*
X107562489Y-98092917D01*
X107552994Y-98098400D01*
X107500952Y-98134840D01*
X107492576Y-98145319D01*
X100064609Y-98145319D01*
X100060722Y-98144828D01*
X100052831Y-98144331D01*
X99745169Y-98144331D01*
X99737278Y-98144828D01*
X99432050Y-98183386D01*
X99424279Y-98184869D01*
X99126296Y-98261378D01*
X99118770Y-98263823D01*
X98832707Y-98377084D01*
X98825572Y-98380441D01*
X98555961Y-98528661D01*
X98549281Y-98532901D01*
X98326177Y-98694995D01*
X98317754Y-98705918D01*
X96520500Y-98705918D01*
X96520500Y-92074500D01*
X96540502Y-92006379D01*
X96594158Y-91959886D01*
X96646500Y-91948500D01*
X150241500Y-91948500D01*
X150309621Y-91968502D01*
G37*
%TD.AperFunction*%
%TD*%
M02*
