M48
; DRILL file {KiCad (6.0.10)} date Thu Jan 26 20:54:36 2023
; FORMAT={-:-/ absolute / metric / decimal}
; #@! TF.CreationDate,2023-01-26T20:54:36+03:00
; #@! TF.GenerationSoftware,Kicad,Pcbnew,(6.0.10)
; #@! TF.FileFunction,Plated,1,2,PTH
FMAT,2
METRIC
; #@! TA.AperFunction,Plated,PTH,ComponentDrill
T1C0.800
; #@! TA.AperFunction,Plated,PTH,ComponentDrill
T2C1.000
; #@! TA.AperFunction,Plated,PTH,ComponentDrill
T3C1.400
; #@! TA.AperFunction,Plated,PTH,ComponentDrill
T4C3.200
%
G90
G05
T1
X110.895Y-107.442
X110.895Y-122.682
X113.435Y-107.442
X113.435Y-122.682
X115.975Y-107.442
X115.975Y-122.682
X118.515Y-107.442
X118.515Y-122.682
X121.055Y-107.442
X121.055Y-122.682
X123.595Y-107.442
X123.595Y-122.682
X126.135Y-107.442
X126.135Y-122.682
X128.675Y-107.442
X128.675Y-122.682
X131.215Y-107.442
X131.215Y-122.682
X133.755Y-107.442
X133.755Y-122.682
X136.144Y-128.524
X136.295Y-107.442
X136.295Y-122.682
X138.835Y-107.442
X138.835Y-122.682
X141.375Y-107.442
X141.375Y-122.682
X143.764Y-128.524
X143.915Y-107.442
X143.915Y-122.682
X146.455Y-107.442
X146.455Y-122.682
T2
X106.829Y-102.072
X108.214Y-99.232
X109.599Y-102.072
X110.984Y-99.232
X112.369Y-102.072
X113.754Y-99.232
X115.139Y-102.072
X116.524Y-99.232
X117.909Y-102.072
X119.294Y-99.232
X120.679Y-102.072
X122.064Y-99.232
X123.449Y-102.072
X124.834Y-99.232
X126.219Y-102.072
X127.604Y-99.232
X128.989Y-102.072
X130.374Y-99.232
X131.759Y-102.072
X133.144Y-99.232
X134.529Y-102.072
X135.914Y-99.232
X137.299Y-102.072
X138.684Y-99.232
X140.069Y-102.072
T3
X115.944Y-133.652
X118.444Y-131.152
X118.444Y-143.652
X123.444Y-133.652
X128.444Y-131.152
X128.444Y-143.652
X130.944Y-133.652
T4
X99.899Y-100.652
X146.999Y-100.652
T0
M30
