%TF.GenerationSoftware,KiCad,Pcbnew,(6.0.10)*%
%TF.CreationDate,2023-01-26T20:54:32+03:00*%
%TF.ProjectId,lpt2midi_short,6c707432-6d69-4646-995f-73686f72742e,rev?*%
%TF.SameCoordinates,Original*%
%TF.FileFunction,Legend,Top*%
%TF.FilePolarity,Positive*%
%FSLAX46Y46*%
G04 Gerber Fmt 4.6, Leading zero omitted, Abs format (unit mm)*
G04 Created by KiCad (PCBNEW (6.0.10)) date 2023-01-26 20:54:32*
%MOMM*%
%LPD*%
G01*
G04 APERTURE LIST*
%ADD10C,0.300000*%
%ADD11C,0.150000*%
%ADD12C,0.120000*%
%ADD13C,0.304800*%
G04 APERTURE END LIST*
D10*
X120265428Y-141394571D02*
X120265428Y-139894571D01*
X120622571Y-139894571D01*
X120836857Y-139966000D01*
X120979714Y-140108857D01*
X121051142Y-140251714D01*
X121122571Y-140537428D01*
X121122571Y-140751714D01*
X121051142Y-141037428D01*
X120979714Y-141180285D01*
X120836857Y-141323142D01*
X120622571Y-141394571D01*
X120265428Y-141394571D01*
X121765428Y-141394571D02*
X121765428Y-139894571D01*
X122479714Y-141394571D02*
X122479714Y-139894571D01*
X123336857Y-141394571D01*
X123336857Y-139894571D01*
X124051142Y-140823142D02*
X125194000Y-140823142D01*
X126622571Y-139894571D02*
X125908285Y-139894571D01*
X125836857Y-140608857D01*
X125908285Y-140537428D01*
X126051142Y-140466000D01*
X126408285Y-140466000D01*
X126551142Y-140537428D01*
X126622571Y-140608857D01*
X126694000Y-140751714D01*
X126694000Y-141108857D01*
X126622571Y-141251714D01*
X126551142Y-141323142D01*
X126408285Y-141394571D01*
X126051142Y-141394571D01*
X125908285Y-141323142D01*
X125836857Y-141251714D01*
X108408285Y-95674571D02*
X108408285Y-94174571D01*
X108765428Y-94174571D01*
X108979714Y-94246000D01*
X109122571Y-94388857D01*
X109194000Y-94531714D01*
X109265428Y-94817428D01*
X109265428Y-95031714D01*
X109194000Y-95317428D01*
X109122571Y-95460285D01*
X108979714Y-95603142D01*
X108765428Y-95674571D01*
X108408285Y-95674571D01*
X110408285Y-94888857D02*
X110622571Y-94960285D01*
X110694000Y-95031714D01*
X110765428Y-95174571D01*
X110765428Y-95388857D01*
X110694000Y-95531714D01*
X110622571Y-95603142D01*
X110479714Y-95674571D01*
X109908285Y-95674571D01*
X109908285Y-94174571D01*
X110408285Y-94174571D01*
X110551142Y-94246000D01*
X110622571Y-94317428D01*
X110694000Y-94460285D01*
X110694000Y-94603142D01*
X110622571Y-94746000D01*
X110551142Y-94817428D01*
X110408285Y-94888857D01*
X109908285Y-94888857D01*
X111336857Y-94317428D02*
X111408285Y-94246000D01*
X111551142Y-94174571D01*
X111908285Y-94174571D01*
X112051142Y-94246000D01*
X112122571Y-94317428D01*
X112194000Y-94460285D01*
X112194000Y-94603142D01*
X112122571Y-94817428D01*
X111265428Y-95674571D01*
X112194000Y-95674571D01*
X113551142Y-94174571D02*
X112836857Y-94174571D01*
X112765428Y-94888857D01*
X112836857Y-94817428D01*
X112979714Y-94746000D01*
X113336857Y-94746000D01*
X113479714Y-94817428D01*
X113551142Y-94888857D01*
X113622571Y-95031714D01*
X113622571Y-95388857D01*
X113551142Y-95531714D01*
X113479714Y-95603142D01*
X113336857Y-95674571D01*
X112979714Y-95674571D01*
X112836857Y-95603142D01*
X112765428Y-95531714D01*
X115408285Y-95674571D02*
X115408285Y-94174571D01*
X115908285Y-95246000D01*
X116408285Y-94174571D01*
X116408285Y-95674571D01*
X117765428Y-95674571D02*
X117765428Y-94888857D01*
X117694000Y-94746000D01*
X117551142Y-94674571D01*
X117265428Y-94674571D01*
X117122571Y-94746000D01*
X117765428Y-95603142D02*
X117622571Y-95674571D01*
X117265428Y-95674571D01*
X117122571Y-95603142D01*
X117051142Y-95460285D01*
X117051142Y-95317428D01*
X117122571Y-95174571D01*
X117265428Y-95103142D01*
X117622571Y-95103142D01*
X117765428Y-95031714D01*
X118693999Y-95674571D02*
X118551142Y-95603142D01*
X118479714Y-95460285D01*
X118479714Y-94174571D01*
X119836857Y-95603142D02*
X119693999Y-95674571D01*
X119408285Y-95674571D01*
X119265428Y-95603142D01*
X119193999Y-95460285D01*
X119193999Y-94888857D01*
X119265428Y-94746000D01*
X119408285Y-94674571D01*
X119693999Y-94674571D01*
X119836857Y-94746000D01*
X119908285Y-94888857D01*
X119908285Y-95031714D01*
X119193999Y-95174571D01*
X122265428Y-95603142D02*
X122122571Y-95674571D01*
X121836857Y-95674571D01*
X121693999Y-95603142D01*
X121622571Y-95460285D01*
X121622571Y-94888857D01*
X121693999Y-94746000D01*
X121836857Y-94674571D01*
X122122571Y-94674571D01*
X122265428Y-94746000D01*
X122336857Y-94888857D01*
X122336857Y-95031714D01*
X121622571Y-95174571D01*
X123622571Y-95674571D02*
X123622571Y-94174571D01*
X123622571Y-95603142D02*
X123479714Y-95674571D01*
X123193999Y-95674571D01*
X123051142Y-95603142D01*
X122979714Y-95531714D01*
X122908285Y-95388857D01*
X122908285Y-94960285D01*
X122979714Y-94817428D01*
X123051142Y-94746000D01*
X123193999Y-94674571D01*
X123479714Y-94674571D01*
X123622571Y-94746000D01*
X124979714Y-94674571D02*
X124979714Y-95888857D01*
X124908285Y-96031714D01*
X124836857Y-96103142D01*
X124693999Y-96174571D01*
X124479714Y-96174571D01*
X124336857Y-96103142D01*
X124979714Y-95603142D02*
X124836857Y-95674571D01*
X124551142Y-95674571D01*
X124408285Y-95603142D01*
X124336857Y-95531714D01*
X124265428Y-95388857D01*
X124265428Y-94960285D01*
X124336857Y-94817428D01*
X124408285Y-94746000D01*
X124551142Y-94674571D01*
X124836857Y-94674571D01*
X124979714Y-94746000D01*
X126265428Y-95603142D02*
X126122571Y-95674571D01*
X125836857Y-95674571D01*
X125694000Y-95603142D01*
X125622571Y-95460285D01*
X125622571Y-94888857D01*
X125694000Y-94746000D01*
X125836857Y-94674571D01*
X126122571Y-94674571D01*
X126265428Y-94746000D01*
X126336857Y-94888857D01*
X126336857Y-95031714D01*
X125622571Y-95174571D01*
X128765428Y-95603142D02*
X128622571Y-95674571D01*
X128336857Y-95674571D01*
X128194000Y-95603142D01*
X128122571Y-95531714D01*
X128051142Y-95388857D01*
X128051142Y-94960285D01*
X128122571Y-94817428D01*
X128194000Y-94746000D01*
X128336857Y-94674571D01*
X128622571Y-94674571D01*
X128765428Y-94746000D01*
X129622571Y-95674571D02*
X129479714Y-95603142D01*
X129408285Y-95531714D01*
X129336857Y-95388857D01*
X129336857Y-94960285D01*
X129408285Y-94817428D01*
X129479714Y-94746000D01*
X129622571Y-94674571D01*
X129836857Y-94674571D01*
X129979714Y-94746000D01*
X130051142Y-94817428D01*
X130122571Y-94960285D01*
X130122571Y-95388857D01*
X130051142Y-95531714D01*
X129979714Y-95603142D01*
X129836857Y-95674571D01*
X129622571Y-95674571D01*
X130765428Y-94674571D02*
X130765428Y-95674571D01*
X130765428Y-94817428D02*
X130836857Y-94746000D01*
X130979714Y-94674571D01*
X131194000Y-94674571D01*
X131336857Y-94746000D01*
X131408285Y-94888857D01*
X131408285Y-95674571D01*
X132122571Y-94674571D02*
X132122571Y-95674571D01*
X132122571Y-94817428D02*
X132194000Y-94746000D01*
X132336857Y-94674571D01*
X132551142Y-94674571D01*
X132694000Y-94746000D01*
X132765428Y-94888857D01*
X132765428Y-95674571D01*
X134051142Y-95603142D02*
X133908285Y-95674571D01*
X133622571Y-95674571D01*
X133479714Y-95603142D01*
X133408285Y-95460285D01*
X133408285Y-94888857D01*
X133479714Y-94746000D01*
X133622571Y-94674571D01*
X133908285Y-94674571D01*
X134051142Y-94746000D01*
X134122571Y-94888857D01*
X134122571Y-95031714D01*
X133408285Y-95174571D01*
X135408285Y-95603142D02*
X135265428Y-95674571D01*
X134979714Y-95674571D01*
X134836857Y-95603142D01*
X134765428Y-95531714D01*
X134694000Y-95388857D01*
X134694000Y-94960285D01*
X134765428Y-94817428D01*
X134836857Y-94746000D01*
X134979714Y-94674571D01*
X135265428Y-94674571D01*
X135408285Y-94746000D01*
X135836857Y-94674571D02*
X136408285Y-94674571D01*
X136051142Y-94174571D02*
X136051142Y-95460285D01*
X136122571Y-95603142D01*
X136265428Y-95674571D01*
X136408285Y-95674571D01*
X137122571Y-95674571D02*
X136979714Y-95603142D01*
X136908285Y-95531714D01*
X136836857Y-95388857D01*
X136836857Y-94960285D01*
X136908285Y-94817428D01*
X136979714Y-94746000D01*
X137122571Y-94674571D01*
X137336857Y-94674571D01*
X137479714Y-94746000D01*
X137551142Y-94817428D01*
X137622571Y-94960285D01*
X137622571Y-95388857D01*
X137551142Y-95531714D01*
X137479714Y-95603142D01*
X137336857Y-95674571D01*
X137122571Y-95674571D01*
X138265428Y-95674571D02*
X138265428Y-94674571D01*
X138265428Y-94960285D02*
X138336857Y-94817428D01*
X138408285Y-94746000D01*
X138551142Y-94674571D01*
X138694000Y-94674571D01*
X116158285Y-115058000D02*
X116872571Y-115058000D01*
X116015428Y-115486571D02*
X116515428Y-113986571D01*
X117015428Y-115486571D01*
X117515428Y-115486571D02*
X117515428Y-114486571D01*
X117515428Y-114772285D02*
X117586857Y-114629428D01*
X117658285Y-114558000D01*
X117801142Y-114486571D01*
X117944000Y-114486571D01*
X119086857Y-115486571D02*
X119086857Y-113986571D01*
X119086857Y-115415142D02*
X118944000Y-115486571D01*
X118658285Y-115486571D01*
X118515428Y-115415142D01*
X118444000Y-115343714D01*
X118372571Y-115200857D01*
X118372571Y-114772285D01*
X118444000Y-114629428D01*
X118515428Y-114558000D01*
X118658285Y-114486571D01*
X118944000Y-114486571D01*
X119086857Y-114558000D01*
X120444000Y-114486571D02*
X120444000Y-115486571D01*
X119801142Y-114486571D02*
X119801142Y-115272285D01*
X119872571Y-115415142D01*
X120015428Y-115486571D01*
X120229714Y-115486571D01*
X120372571Y-115415142D01*
X120444000Y-115343714D01*
X121158285Y-115486571D02*
X121158285Y-114486571D01*
X121158285Y-113986571D02*
X121086857Y-114058000D01*
X121158285Y-114129428D01*
X121229714Y-114058000D01*
X121158285Y-113986571D01*
X121158285Y-114129428D01*
X121872571Y-114486571D02*
X121872571Y-115486571D01*
X121872571Y-114629428D02*
X121944000Y-114558000D01*
X122086857Y-114486571D01*
X122301142Y-114486571D01*
X122444000Y-114558000D01*
X122515428Y-114700857D01*
X122515428Y-115486571D01*
X123444000Y-115486571D02*
X123301142Y-115415142D01*
X123229714Y-115343714D01*
X123158285Y-115200857D01*
X123158285Y-114772285D01*
X123229714Y-114629428D01*
X123301142Y-114558000D01*
X123444000Y-114486571D01*
X123658285Y-114486571D01*
X123801142Y-114558000D01*
X123872571Y-114629428D01*
X123944000Y-114772285D01*
X123944000Y-115200857D01*
X123872571Y-115343714D01*
X123801142Y-115415142D01*
X123658285Y-115486571D01*
X123444000Y-115486571D01*
X125729714Y-115486571D02*
X125729714Y-113986571D01*
X126586857Y-115486571D01*
X126586857Y-113986571D01*
X127944000Y-115486571D02*
X127944000Y-114700857D01*
X127872571Y-114558000D01*
X127729714Y-114486571D01*
X127444000Y-114486571D01*
X127301142Y-114558000D01*
X127944000Y-115415142D02*
X127801142Y-115486571D01*
X127444000Y-115486571D01*
X127301142Y-115415142D01*
X127229714Y-115272285D01*
X127229714Y-115129428D01*
X127301142Y-114986571D01*
X127444000Y-114915142D01*
X127801142Y-114915142D01*
X127944000Y-114843714D01*
X128658285Y-114486571D02*
X128658285Y-115486571D01*
X128658285Y-114629428D02*
X128729714Y-114558000D01*
X128872571Y-114486571D01*
X129086857Y-114486571D01*
X129229714Y-114558000D01*
X129301142Y-114700857D01*
X129301142Y-115486571D01*
X130229714Y-115486571D02*
X130086857Y-115415142D01*
X130015428Y-115343714D01*
X129944000Y-115200857D01*
X129944000Y-114772285D01*
X130015428Y-114629428D01*
X130086857Y-114558000D01*
X130229714Y-114486571D01*
X130444000Y-114486571D01*
X130586857Y-114558000D01*
X130658285Y-114629428D01*
X130729714Y-114772285D01*
X130729714Y-115200857D01*
X130658285Y-115343714D01*
X130586857Y-115415142D01*
X130444000Y-115486571D01*
X130229714Y-115486571D01*
D11*
%TO.C,220*%
X138715904Y-130865619D02*
X138763523Y-130818000D01*
X138858761Y-130770380D01*
X139096857Y-130770380D01*
X139192095Y-130818000D01*
X139239714Y-130865619D01*
X139287333Y-130960857D01*
X139287333Y-131056095D01*
X139239714Y-131198952D01*
X138668285Y-131770380D01*
X139287333Y-131770380D01*
X139668285Y-130865619D02*
X139715904Y-130818000D01*
X139811142Y-130770380D01*
X140049238Y-130770380D01*
X140144476Y-130818000D01*
X140192095Y-130865619D01*
X140239714Y-130960857D01*
X140239714Y-131056095D01*
X140192095Y-131198952D01*
X139620666Y-131770380D01*
X140239714Y-131770380D01*
X140858761Y-130770380D02*
X140954000Y-130770380D01*
X141049238Y-130818000D01*
X141096857Y-130865619D01*
X141144476Y-130960857D01*
X141192095Y-131151333D01*
X141192095Y-131389428D01*
X141144476Y-131579904D01*
X141096857Y-131675142D01*
X141049238Y-131722761D01*
X140954000Y-131770380D01*
X140858761Y-131770380D01*
X140763523Y-131722761D01*
X140715904Y-131675142D01*
X140668285Y-131579904D01*
X140620666Y-131389428D01*
X140620666Y-131151333D01*
X140668285Y-130960857D01*
X140715904Y-130865619D01*
X140763523Y-130818000D01*
X140858761Y-130770380D01*
D12*
%TO.C,J2*%
X140069000Y-104393656D02*
X140319000Y-104826669D01*
X150059000Y-91592331D02*
X150059000Y-103932331D01*
X140319000Y-104826669D02*
X139819000Y-104826669D01*
X150059000Y-103932331D02*
X96839000Y-103932331D01*
X139819000Y-104826669D02*
X140069000Y-104393656D01*
X96839000Y-103932331D02*
X96839000Y-91592331D01*
%TO.C,220*%
X143224000Y-129894000D02*
X143224000Y-129564000D01*
X136684000Y-127154000D02*
X143224000Y-127154000D01*
X136684000Y-129894000D02*
X143224000Y-129894000D01*
X136684000Y-129564000D02*
X136684000Y-129894000D01*
X136684000Y-127484000D02*
X136684000Y-127154000D01*
X143224000Y-127154000D02*
X143224000Y-127484000D01*
%TO.C,U1*%
X145185000Y-108712000D02*
X109625000Y-108712000D01*
X150392000Y-106045000D02*
X147725000Y-106045000D01*
X145185000Y-108712000D02*
X145185000Y-106045000D01*
X145185000Y-108712000D02*
X147725000Y-108712000D01*
X145185000Y-106045000D02*
X106958000Y-106045000D01*
X104418000Y-111125000D02*
X106958000Y-111125000D01*
X104418000Y-111125000D02*
X104418000Y-118999000D01*
X150392000Y-124079000D02*
X150392000Y-106045000D01*
X106958000Y-106045000D02*
X106958000Y-111125000D01*
X106958000Y-124079000D02*
X150392000Y-124079000D01*
X147725000Y-108712000D02*
X147725000Y-106045000D01*
X104418000Y-118999000D02*
X106958000Y-118999000D01*
X109625000Y-108712000D02*
X109625000Y-106042000D01*
X106958000Y-118999000D02*
X106958000Y-124079000D01*
X109625000Y-121412000D02*
X109625000Y-124082000D01*
X147725000Y-121412000D02*
X109625000Y-121412000D01*
X147725000Y-121412000D02*
X147725000Y-124082000D01*
D13*
%TO.C,J1*%
X114444780Y-145402300D02*
X133944360Y-145402300D01*
X132443220Y-145651220D02*
X114444780Y-145651220D01*
X112943640Y-145902680D02*
X132443220Y-145902680D01*
X114444780Y-127652780D02*
X114444780Y-144653000D01*
X114444780Y-127652780D02*
X114945160Y-127152400D01*
X114945160Y-127152400D02*
X117444520Y-127152400D01*
X117444520Y-127152400D02*
X117944900Y-127652780D01*
X117944900Y-127652780D02*
X117944900Y-129651760D01*
X117944900Y-129651760D02*
X121445020Y-129651760D01*
X132443220Y-127652780D02*
X132443220Y-144653000D01*
X132443220Y-127652780D02*
X131942840Y-127152400D01*
X131942840Y-127152400D02*
X129943860Y-127152400D01*
X129943860Y-127152400D02*
X129443480Y-127152400D01*
X129443480Y-127152400D02*
X128943100Y-127652780D01*
X128943100Y-127652780D02*
X128943100Y-129651760D01*
X128943100Y-129651760D02*
X125442980Y-129651760D01*
X121942860Y-127152400D02*
X121445020Y-127652780D01*
X121445020Y-127652780D02*
X121445020Y-129651760D01*
X121942860Y-127152400D02*
X124945140Y-127152400D01*
X124945140Y-127152400D02*
X125442980Y-127652780D01*
X125442980Y-127652780D02*
X125442980Y-129651760D01*
X133944360Y-145651220D02*
X132443220Y-145651220D01*
X132443220Y-145651220D02*
X132443220Y-146151600D01*
X132443220Y-146151600D02*
X112943640Y-146151600D01*
X112943640Y-145651220D02*
X114444780Y-145651220D01*
X114444780Y-145651220D02*
X114444780Y-145150840D01*
X114444780Y-145150840D02*
X133944360Y-145150840D01*
X132443220Y-144653000D02*
X131942840Y-144653000D01*
X114444780Y-144653000D02*
X114945160Y-144653000D01*
X131942840Y-145150840D02*
X131942840Y-144653000D01*
X114945160Y-144653000D02*
X114945160Y-145150840D01*
X112943640Y-146151600D02*
X112943640Y-145651220D01*
X133944360Y-145150840D02*
X133944360Y-145651220D01*
%TD*%
M02*
